{
	"patcher" : 	{
		"fileversion" : 1,
		"rect" : [ 44.0, 44.0, 506.0, 510.0 ],
		"bglocked" : 0,
		"defrect" : [ 44.0, 44.0, 506.0, 510.0 ],
		"openrect" : [ 0.0, 0.0, 0.0, 0.0 ],
		"openinpresentation" : 0,
		"default_fontsize" : 12.0,
		"default_fontface" : 0,
		"default_fontname" : "Arial",
		"gridonopen" : 0,
		"gridsize" : [ 5.0, 5.0 ],
		"gridsnaponopen" : 0,
		"toolbarvisible" : 1,
		"boxanimatetime" : 200,
		"imprint" : 0,
		"boxes" : [ 			{
				"box" : 				{
					"id" : "obj-25",
					"maxclass" : "button",
					"numinlets" : 1,
					"numoutlets" : 1,
					"outlettype" : [ "bang" ],
					"patching_rect" : [ 20.0, 105.0, 25.0, 25.0 ],
					"presentation" : 1,
					"presentation_rect" : [ 40.0, 5.0, 20.0, 20.0 ]
				}

			}
, 			{
				"box" : 				{
					"args" : [  ],
					"id" : "obj-14",
					"maxclass" : "bpatcher",
					"name" : "slg.midictl.maxpat",
					"numinlets" : 1,
					"numoutlets" : 2,
					"outlettype" : [ "", "" ],
					"patching_rect" : [ 40.0, 240.0, 150.0, 100.0 ],
					"presentation" : 1,
					"presentation_rect" : [ 10.0, 170.0, 150.0, 100.0 ],
					"varname" : "slg.midictl"
				}

			}
, 			{
				"box" : 				{
					"fontname" : "Arial",
					"fontsize" : 12.0,
					"id" : "obj-13",
					"maxclass" : "number",
					"numinlets" : 1,
					"numoutlets" : 2,
					"outlettype" : [ "int", "bang" ],
					"patching_rect" : [ 250.0, 75.0, 50.0, 20.0 ]
				}

			}
, 			{
				"box" : 				{
					"fontname" : "Arial",
					"fontsize" : 12.0,
					"id" : "obj-11",
					"maxclass" : "message",
					"numinlets" : 2,
					"numoutlets" : 1,
					"outlettype" : [ "" ],
					"patching_rect" : [ 250.0, 100.0, 77.0, 18.0 ],
					"text" : "/display/x $1"
				}

			}
, 			{
				"box" : 				{
					"id" : "obj-7",
					"maxclass" : "toggle",
					"numinlets" : 1,
					"numoutlets" : 1,
					"outlettype" : [ "int" ],
					"patching_rect" : [ 165.0, 75.0, 20.0, 20.0 ],
					"presentation" : 1,
					"presentation_rect" : [ 10.0, 5.0, 20.0, 20.0 ]
				}

			}
, 			{
				"box" : 				{
					"fontname" : "Arial",
					"fontsize" : 12.0,
					"id" : "obj-5",
					"maxclass" : "message",
					"numinlets" : 2,
					"numoutlets" : 1,
					"outlettype" : [ "" ],
					"patching_rect" : [ 165.0, 100.0, 84.0, 18.0 ],
					"text" : "/rhythm/on $1"
				}

			}
, 			{
				"box" : 				{
					"fontname" : "Arial",
					"fontsize" : 12.0,
					"id" : "obj-2",
					"maxclass" : "newobj",
					"numinlets" : 3,
					"numoutlets" : 2,
					"outlettype" : [ "int", "int" ],
					"patching_rect" : [ 40.0, 415.0, 63.0, 20.0 ],
					"text" : "makenote"
				}

			}
, 			{
				"box" : 				{
					"fontname" : "Arial",
					"fontsize" : 12.0,
					"id" : "obj-1",
					"maxclass" : "newobj",
					"numinlets" : 3,
					"numoutlets" : 0,
					"patching_rect" : [ 40.0, 460.0, 51.0, 20.0 ],
					"text" : "noteout"
				}

			}
, 			{
				"box" : 				{
					"fontname" : "Arial",
					"fontsize" : 12.0,
					"id" : "obj-29",
					"maxclass" : "message",
					"numinlets" : 2,
					"numoutlets" : 1,
					"outlettype" : [ "" ],
					"patching_rect" : [ 180.0, 35.0, 33.0, 18.0 ],
					"text" : "loop"
				}

			}
, 			{
				"box" : 				{
					"fontname" : "Arial",
					"fontsize" : 12.0,
					"id" : "obj-8",
					"maxclass" : "newobj",
					"numinlets" : 1,
					"numoutlets" : 1,
					"outlettype" : [ "" ],
					"patching_rect" : [ 40.0, 80.0, 99.0, 20.0 ],
					"text" : "prepend /display"
				}

			}
, 			{
				"box" : 				{
					"args" : [  ],
					"id" : "obj-4",
					"maxclass" : "bpatcher",
					"name" : "slg.voicetab.maxpat",
					"numinlets" : 1,
					"numoutlets" : 3,
					"offset" : [ -155.0, 0.0 ],
					"outlettype" : [ "int", "", "float" ],
					"patching_rect" : [ 40.0, 135.0, 150.0, 105.0 ],
					"presentation" : 1,
					"presentation_rect" : [ 10.0, 60.0, 150.0, 105.0 ],
					"varname" : "slg.voice"
				}

			}
, 			{
				"box" : 				{
					"clicktabcolor" : [ 0.25098, 0.568627, 0.25098, 1.0 ],
					"fontname" : "Helvetica",
					"fontsize" : 12.0,
					"hint" : "",
					"hovertabcolor" : [ 0.537255, 0.537255, 0.537255, 1.0 ],
					"htabcolor" : [ 0.478431, 0.709804, 0.317647, 1.0 ],
					"id" : "obj-136",
					"margin" : 0,
					"maxclass" : "tab",
					"numinlets" : 1,
					"numoutlets" : 3,
					"outlettype" : [ "int", "", "" ],
					"patching_rect" : [ 25.0, 10.0, 125.0, 49.0 ],
					"presentation" : 1,
					"presentation_rect" : [ 10.0, 30.0, 150.0, 27.0 ],
					"rounded" : 5.0,
					"spacing_x" : 2.0,
					"spacing_y" : 2.0,
					"tabs" : [ "loop", "rhythm", "pitch", "register", "velocity", "articulation" ],
					"varname" : "Data_Sequencer_Number"
				}

			}
, 			{
				"box" : 				{
					"id" : "obj-26",
					"maxclass" : "panel",
					"numinlets" : 1,
					"numoutlets" : 0,
					"patching_rect" : [ 350.0, 5.0, 128.0, 128.0 ],
					"presentation" : 1,
					"presentation_rect" : [ 0.0, 0.0, 170.0, 280.0 ]
				}

			}
 ],
		"lines" : [ 			{
				"patchline" : 				{
					"destination" : [ "obj-1", 1 ],
					"hidden" : 0,
					"midpoints" : [ 93.5, 444.0, 65.5, 444.0 ],
					"source" : [ "obj-2", 1 ]
				}

			}
, 			{
				"patchline" : 				{
					"destination" : [ "obj-1", 0 ],
					"hidden" : 0,
					"midpoints" : [  ],
					"source" : [ "obj-2", 0 ]
				}

			}
, 			{
				"patchline" : 				{
					"destination" : [ "obj-5", 0 ],
					"hidden" : 0,
					"midpoints" : [  ],
					"source" : [ "obj-7", 0 ]
				}

			}
, 			{
				"patchline" : 				{
					"destination" : [ "obj-11", 0 ],
					"hidden" : 0,
					"midpoints" : [  ],
					"source" : [ "obj-13", 0 ]
				}

			}
, 			{
				"patchline" : 				{
					"destination" : [ "obj-1", 2 ],
					"hidden" : 0,
					"midpoints" : [ 49.5, 390.0, 106.0, 390.0, 106.0, 401.0, 81.5, 401.0 ],
					"source" : [ "obj-14", 0 ]
				}

			}
, 			{
				"patchline" : 				{
					"destination" : [ "obj-1", 0 ],
					"hidden" : 0,
					"midpoints" : [ 180.5, 394.0, 113.0, 394.0, 113.0, 397.0, 49.5, 397.0 ],
					"source" : [ "obj-14", 1 ]
				}

			}
, 			{
				"patchline" : 				{
					"destination" : [ "obj-8", 0 ],
					"hidden" : 0,
					"midpoints" : [  ],
					"source" : [ "obj-136", 1 ]
				}

			}
, 			{
				"patchline" : 				{
					"destination" : [ "obj-8", 0 ],
					"hidden" : 0,
					"midpoints" : [  ],
					"source" : [ "obj-29", 0 ]
				}

			}
, 			{
				"patchline" : 				{
					"destination" : [ "obj-25", 0 ],
					"hidden" : 0,
					"midpoints" : [ 49.5, 363.0, 18.0, 363.0, 18.0, 100.0, 29.5, 100.0 ],
					"source" : [ "obj-14", 0 ]
				}

			}
, 			{
				"patchline" : 				{
					"destination" : [ "obj-4", 0 ],
					"hidden" : 0,
					"midpoints" : [  ],
					"source" : [ "obj-11", 0 ]
				}

			}
, 			{
				"patchline" : 				{
					"destination" : [ "obj-4", 0 ],
					"hidden" : 0,
					"midpoints" : [  ],
					"source" : [ "obj-5", 0 ]
				}

			}
, 			{
				"patchline" : 				{
					"destination" : [ "obj-2", 0 ],
					"hidden" : 0,
					"midpoints" : [  ],
					"source" : [ "obj-4", 0 ]
				}

			}
, 			{
				"patchline" : 				{
					"destination" : [ "obj-2", 1 ],
					"hidden" : 0,
					"midpoints" : [ 115.0, 382.0, 71.5, 382.0 ],
					"source" : [ "obj-4", 1 ]
				}

			}
, 			{
				"patchline" : 				{
					"destination" : [ "obj-2", 2 ],
					"hidden" : 0,
					"midpoints" : [ 180.5, 390.0, 93.5, 390.0 ],
					"source" : [ "obj-4", 2 ]
				}

			}
, 			{
				"patchline" : 				{
					"destination" : [ "obj-4", 0 ],
					"hidden" : 0,
					"midpoints" : [  ],
					"source" : [ "obj-8", 0 ]
				}

			}
 ]
	}

}
