{
	"patcher" : 	{
		"fileversion" : 1,
		"rect" : [ 50.0, 94.0, 1052.0, 659.0 ],
		"bglocked" : 0,
		"defrect" : [ 50.0, 94.0, 1052.0, 659.0 ],
		"openrect" : [ 0.0, 0.0, 0.0, 0.0 ],
		"openinpresentation" : 0,
		"default_fontsize" : 12.0,
		"default_fontface" : 0,
		"default_fontname" : "Arial",
		"gridonopen" : 0,
		"gridsize" : [ 5.0, 5.0 ],
		"gridsnaponopen" : 0,
		"toolbarvisible" : 1,
		"boxanimatetime" : 200,
		"imprint" : 0,
		"boxes" : [ 			{
				"box" : 				{
					"maxclass" : "inlet",
					"outlettype" : [ "" ],
					"patching_rect" : [ 295.0, 130.0, 25.0, 25.0 ],
					"id" : "obj-3",
					"numinlets" : 0,
					"numoutlets" : 1,
					"comment" : ""
				}

			}
, 			{
				"box" : 				{
					"maxclass" : "inlet",
					"outlettype" : [ "int" ],
					"patching_rect" : [ 185.0, 130.0, 25.0, 25.0 ],
					"id" : "obj-2",
					"numinlets" : 0,
					"numoutlets" : 1,
					"comment" : ""
				}

			}
, 			{
				"box" : 				{
					"maxclass" : "outlet",
					"patching_rect" : [ 185.0, 291.0, 25.0, 25.0 ],
					"id" : "obj-1",
					"numinlets" : 1,
					"numoutlets" : 0,
					"comment" : ""
				}

			}
, 			{
				"box" : 				{
					"maxclass" : "newobj",
					"text" : "pak i i i i i i i i",
					"outlettype" : [ "" ],
					"fontsize" : 12.0,
					"patching_rect" : [ 185.0, 265.0, 113.5, 20.0 ],
					"id" : "obj-28",
					"fontname" : "Arial",
					"numinlets" : 8,
					"numoutlets" : 1
				}

			}
, 			{
				"box" : 				{
					"maxclass" : "modal_change",
					"outlettype" : [ "int", "int", "int", "int", "int", "int", "int", "int", "list" ],
					"fontcolor" : [ 0.0, 0.0, 0.0, 1.0 ],
					"patching_rect" : [ 185.0, 187.0, 682.0, 68.0 ],
					"id" : "obj-22",
					"numinlets" : 2,
					"numoutlets" : 9
				}

			}
 ],
		"lines" : [ 			{
				"patchline" : 				{
					"source" : [ "obj-22", 7 ],
					"destination" : [ "obj-28", 7 ],
					"hidden" : 0,
					"midpoints" : [  ]
				}

			}
, 			{
				"patchline" : 				{
					"source" : [ "obj-22", 6 ],
					"destination" : [ "obj-28", 6 ],
					"hidden" : 0,
					"midpoints" : [  ]
				}

			}
, 			{
				"patchline" : 				{
					"source" : [ "obj-22", 5 ],
					"destination" : [ "obj-28", 5 ],
					"hidden" : 0,
					"midpoints" : [  ]
				}

			}
, 			{
				"patchline" : 				{
					"source" : [ "obj-22", 4 ],
					"destination" : [ "obj-28", 4 ],
					"hidden" : 0,
					"midpoints" : [  ]
				}

			}
, 			{
				"patchline" : 				{
					"source" : [ "obj-22", 3 ],
					"destination" : [ "obj-28", 3 ],
					"hidden" : 0,
					"midpoints" : [  ]
				}

			}
, 			{
				"patchline" : 				{
					"source" : [ "obj-22", 2 ],
					"destination" : [ "obj-28", 2 ],
					"hidden" : 0,
					"midpoints" : [  ]
				}

			}
, 			{
				"patchline" : 				{
					"source" : [ "obj-22", 1 ],
					"destination" : [ "obj-28", 1 ],
					"hidden" : 0,
					"midpoints" : [  ]
				}

			}
, 			{
				"patchline" : 				{
					"source" : [ "obj-22", 0 ],
					"destination" : [ "obj-28", 0 ],
					"hidden" : 0,
					"midpoints" : [  ]
				}

			}
, 			{
				"patchline" : 				{
					"source" : [ "obj-28", 0 ],
					"destination" : [ "obj-1", 0 ],
					"hidden" : 0,
					"midpoints" : [  ]
				}

			}
, 			{
				"patchline" : 				{
					"source" : [ "obj-2", 0 ],
					"destination" : [ "obj-22", 0 ],
					"hidden" : 0,
					"midpoints" : [  ]
				}

			}
, 			{
				"patchline" : 				{
					"source" : [ "obj-3", 0 ],
					"destination" : [ "obj-22", 1 ],
					"hidden" : 0,
					"midpoints" : [  ]
				}

			}
 ]
	}

}
