{
	"patcher" : 	{
		"fileversion" : 1,
		"rect" : [ 608.0, 44.0, 665.0, 634.0 ],
		"bglocked" : 0,
		"defrect" : [ 608.0, 44.0, 665.0, 634.0 ],
		"openrect" : [ 0.0, 0.0, 0.0, 0.0 ],
		"openinpresentation" : 0,
		"default_fontsize" : 12.0,
		"default_fontface" : 0,
		"default_fontname" : "Arial",
		"gridonopen" : 0,
		"gridsize" : [ 15.0, 15.0 ],
		"gridsnaponopen" : 0,
		"toolbarvisible" : 1,
		"boxanimatetime" : 200,
		"imprint" : 0,
		"enablehscroll" : 1,
		"enablevscroll" : 1,
		"devicewidth" : 0.0,
		"boxes" : [ 			{
				"box" : 				{
					"maxclass" : "newobj",
					"text" : "p Modulate",
					"patching_rect" : [ 181.0, 116.0, 74.0, 20.0 ],
					"id" : "obj-51",
					"fontname" : "Arial",
					"numinlets" : 0,
					"numoutlets" : 1,
					"fontsize" : 12.0,
					"outlettype" : [ "" ],
					"patcher" : 					{
						"fileversion" : 1,
						"rect" : [ 0.0, 0.0, 640.0, 480.0 ],
						"bglocked" : 0,
						"defrect" : [ 0.0, 0.0, 640.0, 480.0 ],
						"openrect" : [ 0.0, 0.0, 0.0, 0.0 ],
						"openinpresentation" : 0,
						"default_fontsize" : 12.0,
						"default_fontface" : 0,
						"default_fontname" : "Arial",
						"gridonopen" : 0,
						"gridsize" : [ 10.0, 10.0 ],
						"gridsnaponopen" : 0,
						"toolbarvisible" : 1,
						"boxanimatetime" : 200,
						"imprint" : 0,
						"enablehscroll" : 1,
						"enablevscroll" : 1,
						"devicewidth" : 0.0,
						"boxes" : [ 							{
								"box" : 								{
									"maxclass" : "dial",
									"size" : 100.0,
									"patching_rect" : [ 200.0, 100.0, 40.0, 40.0 ],
									"id" : "obj-32",
									"numinlets" : 1,
									"numoutlets" : 1,
									"outlettype" : [ "float" ]
								}

							}
, 							{
								"box" : 								{
									"maxclass" : "message",
									"text" : "/rest $1",
									"patching_rect" : [ 200.0, 147.0, 51.0, 18.0 ],
									"id" : "obj-27",
									"fontname" : "Arial",
									"numinlets" : 2,
									"numoutlets" : 1,
									"fontsize" : 12.0,
									"outlettype" : [ "" ]
								}

							}
, 							{
								"box" : 								{
									"maxclass" : "number",
									"patching_rect" : [ 127.0, 113.0, 50.0, 20.0 ],
									"id" : "obj-37",
									"fontname" : "Arial",
									"numinlets" : 1,
									"numoutlets" : 2,
									"fontsize" : 12.0,
									"outlettype" : [ "int", "bang" ]
								}

							}
, 							{
								"box" : 								{
									"maxclass" : "message",
									"text" : "/multiply 1",
									"patching_rect" : [ 50.0, 149.0, 65.0, 18.0 ],
									"id" : "obj-24",
									"fontname" : "Arial",
									"numinlets" : 2,
									"numoutlets" : 1,
									"fontsize" : 12.0,
									"outlettype" : [ "" ]
								}

							}
, 							{
								"box" : 								{
									"maxclass" : "message",
									"text" : "/divide $1",
									"patching_rect" : [ 127.0, 139.0, 62.0, 18.0 ],
									"id" : "obj-22",
									"fontname" : "Arial",
									"numinlets" : 2,
									"numoutlets" : 1,
									"fontsize" : 12.0,
									"outlettype" : [ "" ]
								}

							}
, 							{
								"box" : 								{
									"maxclass" : "outlet",
									"patching_rect" : [ 120.666656, 227.0, 25.0, 25.0 ],
									"id" : "obj-50",
									"numinlets" : 1,
									"numoutlets" : 0,
									"comment" : ""
								}

							}
 ],
						"lines" : [ 							{
								"patchline" : 								{
									"source" : [ "obj-27", 0 ],
									"destination" : [ "obj-50", 0 ],
									"hidden" : 0,
									"midpoints" : [  ]
								}

							}
, 							{
								"patchline" : 								{
									"source" : [ "obj-22", 0 ],
									"destination" : [ "obj-50", 0 ],
									"hidden" : 0,
									"midpoints" : [  ]
								}

							}
, 							{
								"patchline" : 								{
									"source" : [ "obj-24", 0 ],
									"destination" : [ "obj-50", 0 ],
									"hidden" : 0,
									"midpoints" : [  ]
								}

							}
, 							{
								"patchline" : 								{
									"source" : [ "obj-32", 0 ],
									"destination" : [ "obj-27", 0 ],
									"hidden" : 0,
									"midpoints" : [  ]
								}

							}
, 							{
								"patchline" : 								{
									"source" : [ "obj-37", 0 ],
									"destination" : [ "obj-22", 0 ],
									"hidden" : 0,
									"midpoints" : [  ]
								}

							}
 ]
					}
,
					"saved_object_attributes" : 					{
						"default_fontsize" : 12.0,
						"fontname" : "Arial",
						"default_fontface" : 0,
						"globalpatchername" : "",
						"default_fontname" : "Arial",
						"fontface" : 0,
						"fontsize" : 12.0
					}

				}

			}
, 			{
				"box" : 				{
					"maxclass" : "newobj",
					"text" : "p Memory",
					"patching_rect" : [ 178.0, 89.0, 65.0, 20.0 ],
					"id" : "obj-49",
					"fontname" : "Arial",
					"numinlets" : 0,
					"numoutlets" : 1,
					"fontsize" : 12.0,
					"outlettype" : [ "" ],
					"patcher" : 					{
						"fileversion" : 1,
						"rect" : [ 0.0, 0.0, 640.0, 480.0 ],
						"bglocked" : 0,
						"defrect" : [ 0.0, 0.0, 640.0, 480.0 ],
						"openrect" : [ 0.0, 0.0, 0.0, 0.0 ],
						"openinpresentation" : 0,
						"default_fontsize" : 12.0,
						"default_fontface" : 0,
						"default_fontname" : "Arial",
						"gridonopen" : 0,
						"gridsize" : [ 10.0, 10.0 ],
						"gridsnaponopen" : 0,
						"toolbarvisible" : 1,
						"boxanimatetime" : 200,
						"imprint" : 0,
						"enablehscroll" : 1,
						"enablevscroll" : 1,
						"devicewidth" : 0.0,
						"boxes" : [ 							{
								"box" : 								{
									"maxclass" : "message",
									"text" : "/ltm 3",
									"patching_rect" : [ 208.0, 105.0, 50.0, 18.0 ],
									"id" : "obj-50",
									"fontname" : "Arial",
									"numinlets" : 2,
									"numoutlets" : 1,
									"fontsize" : 12.0,
									"outlettype" : [ "" ]
								}

							}
, 							{
								"box" : 								{
									"maxclass" : "message",
									"text" : "/save 3",
									"patching_rect" : [ 208.0, 128.0, 50.0, 18.0 ],
									"id" : "obj-47",
									"fontname" : "Arial",
									"numinlets" : 2,
									"numoutlets" : 1,
									"fontsize" : 12.0,
									"outlettype" : [ "" ]
								}

							}
, 							{
								"box" : 								{
									"maxclass" : "message",
									"text" : "/ltm 2",
									"patching_rect" : [ 50.0, 102.0, 50.0, 18.0 ],
									"id" : "obj-48",
									"fontname" : "Arial",
									"numinlets" : 2,
									"numoutlets" : 1,
									"fontsize" : 12.0,
									"outlettype" : [ "" ]
								}

							}
, 							{
								"box" : 								{
									"maxclass" : "message",
									"text" : "/ltm 2 4n 4n 8n 8n 4n",
									"patching_rect" : [ 54.0, 126.0, 142.0, 18.0 ],
									"id" : "obj-45",
									"fontname" : "Arial",
									"numinlets" : 2,
									"numoutlets" : 1,
									"fontsize" : 12.0,
									"outlettype" : [ "" ]
								}

							}
, 							{
								"box" : 								{
									"maxclass" : "message",
									"text" : "/read mylist.coll",
									"patching_rect" : [ 73.0, 206.0, 97.0, 18.0 ],
									"id" : "obj-42",
									"fontname" : "Arial",
									"numinlets" : 2,
									"numoutlets" : 1,
									"fontsize" : 12.0,
									"outlettype" : [ "" ]
								}

							}
, 							{
								"box" : 								{
									"maxclass" : "message",
									"text" : "/write mylist.coll",
									"patching_rect" : [ 174.0, 206.0, 101.0, 18.0 ],
									"id" : "obj-40",
									"fontname" : "Arial",
									"numinlets" : 2,
									"numoutlets" : 1,
									"fontsize" : 12.0,
									"outlettype" : [ "" ]
								}

							}
, 							{
								"box" : 								{
									"maxclass" : "message",
									"text" : "/ltm 2 4n 4n",
									"patching_rect" : [ 76.0, 173.0, 145.0, 18.0 ],
									"id" : "obj-35",
									"fontname" : "Arial",
									"numinlets" : 2,
									"numoutlets" : 1,
									"fontsize" : 12.0,
									"outlettype" : [ "" ]
								}

							}
, 							{
								"box" : 								{
									"maxclass" : "message",
									"text" : "/ltm 1 4n 4n 8n",
									"patching_rect" : [ 56.0, 149.0, 145.0, 18.0 ],
									"id" : "obj-33",
									"fontname" : "Arial",
									"numinlets" : 2,
									"numoutlets" : 1,
									"fontsize" : 12.0,
									"outlettype" : [ "" ]
								}

							}
, 							{
								"box" : 								{
									"maxclass" : "message",
									"text" : "/ltm 1",
									"patching_rect" : [ 101.0, 100.0, 50.0, 18.0 ],
									"id" : "obj-4",
									"fontname" : "Arial",
									"numinlets" : 2,
									"numoutlets" : 1,
									"fontsize" : 12.0,
									"outlettype" : [ "" ]
								}

							}
, 							{
								"box" : 								{
									"maxclass" : "outlet",
									"patching_rect" : [ 106.111115, 284.0, 25.0, 25.0 ],
									"id" : "obj-19",
									"numinlets" : 1,
									"numoutlets" : 0,
									"comment" : ""
								}

							}
 ],
						"lines" : [ 							{
								"patchline" : 								{
									"source" : [ "obj-47", 0 ],
									"destination" : [ "obj-19", 0 ],
									"hidden" : 0,
									"midpoints" : [  ]
								}

							}
, 							{
								"patchline" : 								{
									"source" : [ "obj-50", 0 ],
									"destination" : [ "obj-19", 0 ],
									"hidden" : 0,
									"midpoints" : [  ]
								}

							}
, 							{
								"patchline" : 								{
									"source" : [ "obj-40", 0 ],
									"destination" : [ "obj-19", 0 ],
									"hidden" : 0,
									"midpoints" : [  ]
								}

							}
, 							{
								"patchline" : 								{
									"source" : [ "obj-4", 0 ],
									"destination" : [ "obj-19", 0 ],
									"hidden" : 0,
									"midpoints" : [  ]
								}

							}
, 							{
								"patchline" : 								{
									"source" : [ "obj-35", 0 ],
									"destination" : [ "obj-19", 0 ],
									"hidden" : 0,
									"midpoints" : [  ]
								}

							}
, 							{
								"patchline" : 								{
									"source" : [ "obj-42", 0 ],
									"destination" : [ "obj-19", 0 ],
									"hidden" : 0,
									"midpoints" : [  ]
								}

							}
, 							{
								"patchline" : 								{
									"source" : [ "obj-33", 0 ],
									"destination" : [ "obj-19", 0 ],
									"hidden" : 0,
									"midpoints" : [  ]
								}

							}
, 							{
								"patchline" : 								{
									"source" : [ "obj-45", 0 ],
									"destination" : [ "obj-19", 0 ],
									"hidden" : 0,
									"midpoints" : [  ]
								}

							}
, 							{
								"patchline" : 								{
									"source" : [ "obj-48", 0 ],
									"destination" : [ "obj-19", 0 ],
									"hidden" : 0,
									"midpoints" : [  ]
								}

							}
 ]
					}
,
					"saved_object_attributes" : 					{
						"default_fontsize" : 12.0,
						"fontname" : "Arial",
						"default_fontface" : 0,
						"globalpatchername" : "",
						"default_fontname" : "Arial",
						"fontface" : 0,
						"fontsize" : 12.0
					}

				}

			}
, 			{
				"box" : 				{
					"maxclass" : "message",
					"text" : "/pattern 4n 10 16n 1",
					"patching_rect" : [ 27.0, 114.0, 141.0, 18.0 ],
					"id" : "obj-46",
					"fontname" : "Arial",
					"numinlets" : 2,
					"numoutlets" : 1,
					"fontsize" : 12.0,
					"outlettype" : [ "" ]
				}

			}
, 			{
				"box" : 				{
					"maxclass" : "message",
					"text" : "/selection histo",
					"patching_rect" : [ 25.0, 91.0, 104.0, 18.0 ],
					"id" : "obj-44",
					"fontname" : "Arial",
					"numinlets" : 2,
					"numoutlets" : 1,
					"fontsize" : 12.0,
					"outlettype" : [ "" ]
				}

			}
, 			{
				"box" : 				{
					"maxclass" : "newobj",
					"text" : "r #0-pulse",
					"patching_rect" : [ 30.0, 147.0, 100.0, 20.0 ],
					"id" : "obj-18",
					"fontname" : "Arial",
					"numinlets" : 0,
					"numoutlets" : 1,
					"fontsize" : 12.0,
					"outlettype" : [ "" ]
				}

			}
, 			{
				"box" : 				{
					"maxclass" : "message",
					"text" : "/beat $1",
					"patching_rect" : [ 396.0, 173.0, 54.0, 18.0 ],
					"id" : "obj-43",
					"fontname" : "Arial",
					"numinlets" : 2,
					"numoutlets" : 1,
					"fontsize" : 12.0,
					"outlettype" : [ "" ]
				}

			}
, 			{
				"box" : 				{
					"maxclass" : "newobj",
					"text" : "r #0-pulse",
					"patching_rect" : [ 122.0, 403.0, 86.0, 20.0 ],
					"id" : "obj-41",
					"fontname" : "Arial",
					"numinlets" : 0,
					"numoutlets" : 1,
					"fontsize" : 12.0,
					"outlettype" : [ "" ]
				}

			}
, 			{
				"box" : 				{
					"maxclass" : "newobj",
					"text" : "r #0-pulse",
					"patching_rect" : [ 395.0, 299.0, 100.0, 20.0 ],
					"id" : "obj-38",
					"fontname" : "Arial",
					"numinlets" : 0,
					"numoutlets" : 1,
					"fontsize" : 12.0,
					"outlettype" : [ "" ]
				}

			}
, 			{
				"box" : 				{
					"maxclass" : "newobj",
					"text" : "s #0-pulse",
					"patching_rect" : [ 396.0, 196.0, 100.0, 20.0 ],
					"id" : "obj-28",
					"fontname" : "Arial",
					"numinlets" : 1,
					"numoutlets" : 0,
					"fontsize" : 12.0
				}

			}
, 			{
				"box" : 				{
					"maxclass" : "message",
					"text" : "64",
					"patching_rect" : [ 122.0, 461.0, 32.5, 18.0 ],
					"id" : "obj-36",
					"fontname" : "Arial",
					"numinlets" : 2,
					"numoutlets" : 1,
					"fontsize" : 12.0,
					"outlettype" : [ "" ]
				}

			}
, 			{
				"box" : 				{
					"maxclass" : "button",
					"patching_rect" : [ 222.0, 424.0, 20.0, 20.0 ],
					"id" : "obj-34",
					"numinlets" : 1,
					"numoutlets" : 1,
					"outlettype" : [ "bang" ]
				}

			}
, 			{
				"box" : 				{
					"maxclass" : "message",
					"text" : "/pattern 4n 4n 8n 8n 2n 16n 16n 16n 16n",
					"patching_rect" : [ 355.0, 277.0, 237.0, 18.0 ],
					"id" : "obj-31",
					"fontname" : "Arial",
					"numinlets" : 2,
					"numoutlets" : 1,
					"fontsize" : 12.0,
					"outlettype" : [ "" ]
				}

			}
, 			{
				"box" : 				{
					"maxclass" : "message",
					"text" : "62",
					"patching_rect" : [ 54.0, 464.0, 32.5, 18.0 ],
					"id" : "obj-30",
					"fontname" : "Arial",
					"numinlets" : 2,
					"numoutlets" : 1,
					"fontsize" : 12.0,
					"outlettype" : [ "" ]
				}

			}
, 			{
				"box" : 				{
					"maxclass" : "bpatcher",
					"varname" : "slg.simsrythm[2]",
					"patching_rect" : [ 222.0, 305.0, 152.0, 112.0 ],
					"id" : "obj-6",
					"args" : [  ],
					"numinlets" : 3,
					"name" : "slg.simsrythm.maxpat",
					"numoutlets" : 3,
					"outlettype" : [ "bang", "", "" ]
				}

			}
, 			{
				"box" : 				{
					"maxclass" : "toggle",
					"patching_rect" : [ 222.0, 275.0, 20.0, 20.0 ],
					"id" : "obj-26",
					"numinlets" : 1,
					"numoutlets" : 1,
					"outlettype" : [ "int" ]
				}

			}
, 			{
				"box" : 				{
					"maxclass" : "button",
					"patching_rect" : [ 122.0, 430.0, 20.0, 20.0 ],
					"id" : "obj-39",
					"numinlets" : 1,
					"numoutlets" : 1,
					"outlettype" : [ "bang" ]
				}

			}
, 			{
				"box" : 				{
					"maxclass" : "message",
					"text" : "2n",
					"patching_rect" : [ 55.0, 396.0, 50.0, 18.0 ],
					"id" : "obj-29",
					"fontname" : "Arial",
					"numinlets" : 2,
					"numoutlets" : 1,
					"fontsize" : 12.0,
					"outlettype" : [ "" ]
				}

			}
, 			{
				"box" : 				{
					"maxclass" : "bpatcher",
					"presentation_rect" : [ 270.0, 45.0, 150.0, 70.0 ],
					"patching_rect" : [ 330.0, 93.0, 150.0, 70.0 ],
					"presentation" : 1,
					"id" : "obj-25",
					"args" : [  ],
					"numinlets" : 1,
					"name" : "slg.transport.maxpat",
					"numoutlets" : 3,
					"outlettype" : [ "", "", "" ]
				}

			}
, 			{
				"box" : 				{
					"maxclass" : "message",
					"text" : "61",
					"patching_rect" : [ 19.0, 464.0, 32.5, 18.0 ],
					"id" : "obj-23",
					"fontname" : "Arial",
					"numinlets" : 2,
					"numoutlets" : 1,
					"fontsize" : 12.0,
					"outlettype" : [ "" ]
				}

			}
, 			{
				"box" : 				{
					"maxclass" : "newobj",
					"text" : "noteout 10",
					"patching_rect" : [ 19.0, 537.0, 67.0, 20.0 ],
					"id" : "obj-21",
					"fontname" : "Arial",
					"numinlets" : 3,
					"numoutlets" : 0,
					"fontsize" : 12.0
				}

			}
, 			{
				"box" : 				{
					"maxclass" : "newobj",
					"text" : "makenote 120 500",
					"patching_rect" : [ 19.0, 507.0, 110.0, 20.0 ],
					"id" : "obj-20",
					"fontname" : "Arial",
					"numinlets" : 3,
					"numoutlets" : 2,
					"fontsize" : 12.0,
					"outlettype" : [ "float", "float" ]
				}

			}
, 			{
				"box" : 				{
					"maxclass" : "bpatcher",
					"varname" : "slg.simsrythm[1]",
					"patching_rect" : [ 19.0, 278.0, 152.0, 112.0 ],
					"id" : "obj-17",
					"args" : [  ],
					"numinlets" : 3,
					"name" : "slg.simsrythm.maxpat",
					"numoutlets" : 3,
					"outlettype" : [ "bang", "", "" ]
				}

			}
, 			{
				"box" : 				{
					"maxclass" : "button",
					"patching_rect" : [ 19.0, 439.0, 20.0, 20.0 ],
					"id" : "obj-11",
					"numinlets" : 1,
					"numoutlets" : 1,
					"outlettype" : [ "bang" ]
				}

			}
, 			{
				"box" : 				{
					"maxclass" : "toggle",
					"patching_rect" : [ 19.0, 243.0, 20.0, 20.0 ],
					"id" : "obj-9",
					"numinlets" : 1,
					"numoutlets" : 1,
					"outlettype" : [ "int" ]
				}

			}
, 			{
				"box" : 				{
					"maxclass" : "newobj",
					"text" : "autohelp",
					"patching_rect" : [ 12.0, 580.0, 57.0, 20.0 ],
					"hidden" : 1,
					"id" : "obj-7",
					"fontname" : "Arial",
					"numinlets" : 1,
					"numoutlets" : 0,
					"fontsize" : 12.0
				}

			}
, 			{
				"box" : 				{
					"maxclass" : "message",
					"text" : "/read rhythm.seq",
					"patching_rect" : [ 171.0, 243.0, 101.0, 18.0 ],
					"id" : "obj-5",
					"fontname" : "Arial",
					"numinlets" : 2,
					"numoutlets" : 1,
					"fontsize" : 12.0,
					"outlettype" : [ "" ]
				}

			}
, 			{
				"box" : 				{
					"maxclass" : "message",
					"text" : "/pattern 4n 4n 8n 8n 2n 16n 16n 16n 16n",
					"patching_rect" : [ 36.0, 203.0, 228.0, 18.0 ],
					"id" : "obj-3",
					"fontname" : "Arial",
					"numinlets" : 2,
					"numoutlets" : 1,
					"fontsize" : 12.0,
					"outlettype" : [ "" ]
				}

			}
, 			{
				"box" : 				{
					"maxclass" : "message",
					"text" : "/selection series",
					"patching_rect" : [ 34.0, 181.0, 97.0, 18.0 ],
					"id" : "obj-2",
					"fontname" : "Arial",
					"numinlets" : 2,
					"numoutlets" : 1,
					"fontsize" : 12.0,
					"outlettype" : [ "" ]
				}

			}
, 			{
				"box" : 				{
					"maxclass" : "comment",
					"varname" : "autohelp_top_title",
					"text" : "slg.simsrhythm",
					"patching_rect" : [ 10.0, 8.0, 485.0, 30.0 ],
					"id" : "obj-1",
					"fontname" : "Arial",
					"frgb" : [ 0.93, 0.93, 0.97, 1.0 ],
					"numinlets" : 1,
					"numoutlets" : 0,
					"textcolor" : [ 0.93, 0.93, 0.97, 1.0 ],
					"fontface" : 3,
					"fontsize" : 20.871338
				}

			}
, 			{
				"box" : 				{
					"maxclass" : "comment",
					"varname" : "autohelp_top_digest",
					"text" : "produces rhythmic patterns synchronized with beat",
					"patching_rect" : [ 10.0, 36.0, 485.0, 21.0 ],
					"id" : "obj-8",
					"fontname" : "Arial",
					"frgb" : [ 0.93, 0.93, 0.97, 1.0 ],
					"numinlets" : 1,
					"numoutlets" : 0,
					"textcolor" : [ 0.93, 0.93, 0.97, 1.0 ],
					"fontsize" : 12.754705
				}

			}
, 			{
				"box" : 				{
					"maxclass" : "comment",
					"varname" : "autohelp_top_description",
					"patching_rect" : [ 10.0, 57.0, 423.0, 20.0 ],
					"id" : "obj-10",
					"fontname" : "Arial",
					"frgb" : [ 0.0, 0.0, 0.0, 1.0 ],
					"numinlets" : 1,
					"numoutlets" : 0,
					"fontsize" : 11.595187
				}

			}
, 			{
				"box" : 				{
					"maxclass" : "textbutton",
					"varname" : "autohelp_top_ref",
					"presentation_rect" : [ 0.0, 0.0, 49.079121, 14.666666 ],
					"bgoveroncolor" : [ 0.0, 0.0, 0.0, 0.0 ],
					"spacing_x" : 0.0,
					"bordercolor" : [ 0.0, 0.0, 0.0, 0.0 ],
					"bgoncolor" : [ 0.0, 0.0, 0.0, 0.0 ],
					"patching_rect" : [ 450.920868, 22.0, 49.079121, 14.666666 ],
					"id" : "obj-12",
					"spacing_y" : 0.0,
					"textoncolor" : [ 0.27, 0.35, 0.47, 1.0 ],
					"fontname" : "Arial",
					"numinlets" : 1,
					"fontlink" : 1,
					"textovercolor" : [ 0.4, 0.5, 0.65, 1.0 ],
					"numoutlets" : 3,
					"bgcolor" : [ 0.0, 0.0, 0.0, 0.0 ],
					"underline" : 1,
					"textcolor" : [ 0.27, 0.35, 0.47, 1.0 ],
					"fontface" : 3,
					"bgovercolor" : [ 0.0, 0.0, 0.0, 0.0 ],
					"fontsize" : 12.754705,
					"outlettype" : [ "", "", "int" ]
				}

			}
, 			{
				"box" : 				{
					"maxclass" : "comment",
					"varname" : "autohelp_see_title",
					"text" : "See Also:",
					"patching_rect" : [ 17.0, 584.0, 100.0, 20.0 ],
					"id" : "obj-14",
					"fontname" : "Arial",
					"frgb" : [ 0.0, 0.0, 0.0, 1.0 ],
					"numinlets" : 1,
					"numoutlets" : 0,
					"fontface" : 1,
					"fontsize" : 11.595187
				}

			}
, 			{
				"box" : 				{
					"maxclass" : "umenu",
					"varname" : "autohelp_see_menu",
					"items" : "<empty>",
					"patching_rect" : [ 17.0, 604.0, 130.0, 20.0 ],
					"id" : "obj-15",
					"fontname" : "Arial",
					"numinlets" : 1,
					"types" : [  ],
					"numoutlets" : 3,
					"fontsize" : 11.595187,
					"outlettype" : [ "int", "", "" ]
				}

			}
, 			{
				"box" : 				{
					"maxclass" : "panel",
					"varname" : "autohelp_top_panel",
					"grad2" : [ 0.85, 0.85, 0.85, 1.0 ],
					"patching_rect" : [ 5.0, 5.0, 495.0, 52.0 ],
					"id" : "obj-13",
					"numinlets" : 1,
					"mode" : 1,
					"numoutlets" : 0,
					"grad1" : [ 0.27, 0.35, 0.47, 1.0 ],
					"background" : 1
				}

			}
, 			{
				"box" : 				{
					"maxclass" : "panel",
					"varname" : "autohelp_see_panel",
					"bordercolor" : [ 0.5, 0.5, 0.5, 0.75 ],
					"patching_rect" : [ 12.0, 580.0, 140.0, 50.0 ],
					"id" : "obj-16",
					"numinlets" : 1,
					"border" : 2,
					"numoutlets" : 0,
					"bgcolor" : [ 0.85, 0.85, 0.85, 0.75 ],
					"background" : 1
				}

			}
 ],
		"lines" : [ 			{
				"patchline" : 				{
					"source" : [ "obj-17", 0 ],
					"destination" : [ "obj-11", 0 ],
					"hidden" : 0,
					"midpoints" : [  ]
				}

			}
, 			{
				"patchline" : 				{
					"source" : [ "obj-17", 1 ],
					"destination" : [ "obj-29", 1 ],
					"hidden" : 0,
					"midpoints" : [  ]
				}

			}
, 			{
				"patchline" : 				{
					"source" : [ "obj-18", 0 ],
					"destination" : [ "obj-17", 2 ],
					"hidden" : 0,
					"midpoints" : [  ]
				}

			}
, 			{
				"patchline" : 				{
					"source" : [ "obj-2", 0 ],
					"destination" : [ "obj-17", 2 ],
					"hidden" : 0,
					"midpoints" : [  ]
				}

			}
, 			{
				"patchline" : 				{
					"source" : [ "obj-3", 0 ],
					"destination" : [ "obj-17", 2 ],
					"hidden" : 0,
					"midpoints" : [  ]
				}

			}
, 			{
				"patchline" : 				{
					"source" : [ "obj-44", 0 ],
					"destination" : [ "obj-17", 2 ],
					"hidden" : 0,
					"midpoints" : [  ]
				}

			}
, 			{
				"patchline" : 				{
					"source" : [ "obj-46", 0 ],
					"destination" : [ "obj-17", 2 ],
					"hidden" : 0,
					"midpoints" : [  ]
				}

			}
, 			{
				"patchline" : 				{
					"source" : [ "obj-5", 0 ],
					"destination" : [ "obj-17", 2 ],
					"hidden" : 0,
					"midpoints" : [  ]
				}

			}
, 			{
				"patchline" : 				{
					"source" : [ "obj-9", 0 ],
					"destination" : [ "obj-17", 0 ],
					"hidden" : 0,
					"midpoints" : [  ]
				}

			}
, 			{
				"patchline" : 				{
					"source" : [ "obj-26", 0 ],
					"destination" : [ "obj-6", 0 ],
					"hidden" : 0,
					"midpoints" : [  ]
				}

			}
, 			{
				"patchline" : 				{
					"source" : [ "obj-31", 0 ],
					"destination" : [ "obj-6", 2 ],
					"hidden" : 0,
					"midpoints" : [  ]
				}

			}
, 			{
				"patchline" : 				{
					"source" : [ "obj-38", 0 ],
					"destination" : [ "obj-6", 2 ],
					"hidden" : 0,
					"midpoints" : [  ]
				}

			}
, 			{
				"patchline" : 				{
					"source" : [ "obj-6", 0 ],
					"destination" : [ "obj-34", 0 ],
					"hidden" : 0,
					"midpoints" : [  ]
				}

			}
, 			{
				"patchline" : 				{
					"source" : [ "obj-43", 0 ],
					"destination" : [ "obj-28", 0 ],
					"hidden" : 0,
					"midpoints" : [  ]
				}

			}
, 			{
				"patchline" : 				{
					"source" : [ "obj-41", 0 ],
					"destination" : [ "obj-39", 0 ],
					"hidden" : 0,
					"midpoints" : [  ]
				}

			}
, 			{
				"patchline" : 				{
					"source" : [ "obj-39", 0 ],
					"destination" : [ "obj-36", 0 ],
					"hidden" : 0,
					"midpoints" : [  ]
				}

			}
, 			{
				"patchline" : 				{
					"source" : [ "obj-36", 0 ],
					"destination" : [ "obj-20", 0 ],
					"hidden" : 0,
					"midpoints" : [  ]
				}

			}
, 			{
				"patchline" : 				{
					"source" : [ "obj-34", 0 ],
					"destination" : [ "obj-30", 0 ],
					"hidden" : 0,
					"midpoints" : [  ]
				}

			}
, 			{
				"patchline" : 				{
					"source" : [ "obj-30", 0 ],
					"destination" : [ "obj-20", 0 ],
					"hidden" : 0,
					"midpoints" : [  ]
				}

			}
, 			{
				"patchline" : 				{
					"source" : [ "obj-25", 1 ],
					"destination" : [ "obj-43", 0 ],
					"hidden" : 0,
					"midpoints" : [  ]
				}

			}
, 			{
				"patchline" : 				{
					"source" : [ "obj-23", 0 ],
					"destination" : [ "obj-20", 0 ],
					"hidden" : 0,
					"midpoints" : [  ]
				}

			}
, 			{
				"patchline" : 				{
					"source" : [ "obj-20", 0 ],
					"destination" : [ "obj-21", 0 ],
					"hidden" : 0,
					"midpoints" : [  ]
				}

			}
, 			{
				"patchline" : 				{
					"source" : [ "obj-20", 1 ],
					"destination" : [ "obj-21", 1 ],
					"hidden" : 0,
					"midpoints" : [ 119.5, 532.0, 52.5, 532.0 ]
				}

			}
, 			{
				"patchline" : 				{
					"source" : [ "obj-11", 0 ],
					"destination" : [ "obj-23", 0 ],
					"hidden" : 0,
					"midpoints" : [  ]
				}

			}
, 			{
				"patchline" : 				{
					"source" : [ "obj-49", 0 ],
					"destination" : [ "obj-17", 2 ],
					"hidden" : 0,
					"midpoints" : [  ]
				}

			}
, 			{
				"patchline" : 				{
					"source" : [ "obj-51", 0 ],
					"destination" : [ "obj-17", 2 ],
					"hidden" : 0,
					"midpoints" : [  ]
				}

			}
 ]
	}

}
