#N canvas 321 22 860 680 10;
#X obj 396 199 slg_rlreward;
#X obj 17 91 tgl 15 0 empty empty empty 17 7 0 10 -262144 -1 -1 0 1
;
#X msg 84 184 startlearn;
#X msg 158 184 stoplearn;
#X msg 226 184 dump;
#X obj 19 316 s action;
#X obj 367 24 r action;
#X obj 483 200 prepend set;
#X msg 483 227 7 7 1;
#X obj 396 226 prepend set;
#X msg 396 250 1;
#X msg 266 183 0 \$1;
#X msg 304 182 1 \$1;
#X obj 368 307 grid grid1 200 0 8 200 0 8 1 1 1 8 8 543 332;
#X floatatom 368 518 5 0 0 0 - - -;
#X floatatom 561 520 5 0 0 0 - - -;
#X msg 368 283 values \$1 \$2;
#X msg 39 90 reset;
#X obj 19 226 rl_sarsa_egreedy 0.1 0.95 0.1 0.001 4 8 8;
#X floatatom 473 86 5 0 0 0 - - -;
#X msg 425 24 randomize;
#X msg 117 75 epsilon \$1;
#X msg 130 99 lambda \$1;
#X msg 145 124 learningrate \$1;
#X msg 156 148 gamma \$1;
#X floatatom 117 52 5 0 0 0 - - -;
#X floatatom 155 52 5 0 0 0 - - -;
#X floatatom 203 53 5 0 0 0 - - -;
#X floatatom 242 53 5 0 0 0 - - -;
#X obj 394 119 bng 15 250 50 0 empty empty empty 17 7 0 10 -262144
-1 -1;
#X obj 421 120 bng 15 250 50 0 empty empty empty 17 7 0 10 -262144
-1 -1;
#X obj 448 120 bng 15 250 50 0 empty empty empty 17 7 0 10 -262144
-1 -1;
#X obj 367 57 slg_rlstate 2 8 8;
#X obj 367 88 unpack f f f f;
#X obj 396 160 pack f f f;
#X obj 517 24 vsl 15 128 0 127 0 0 empty empty empty 0 -9 0 10 -262144
-1 -1 0 1;
#X obj 19 184 metro 50;
#X obj 19 258 sel 0 1;
#X msg 19 283 0;
#X msg 48 282 1;
#X connect 0 0 9 0;
#X connect 0 0 18 2;
#X connect 1 0 36 0;
#X connect 2 0 18 0;
#X connect 3 0 18 0;
#X connect 4 0 18 0;
#X connect 6 0 32 0;
#X connect 7 0 8 0;
#X connect 9 0 10 0;
#X connect 11 0 18 1;
#X connect 12 0 18 1;
#X connect 13 0 14 0;
#X connect 13 1 15 0;
#X connect 16 0 13 0;
#X connect 17 0 18 0;
#X connect 18 0 37 0;
#X connect 20 0 32 0;
#X connect 21 0 18 0;
#X connect 22 0 18 0;
#X connect 23 0 18 0;
#X connect 24 0 18 0;
#X connect 25 0 21 0;
#X connect 26 0 22 0;
#X connect 27 0 23 0;
#X connect 28 0 24 0;
#X connect 29 0 34 0;
#X connect 30 0 34 0;
#X connect 31 0 34 0;
#X connect 32 0 16 0;
#X connect 32 0 33 0;
#X connect 32 1 19 0;
#X connect 32 1 34 2;
#X connect 33 0 11 0;
#X connect 33 0 34 0;
#X connect 33 1 12 0;
#X connect 33 1 29 0;
#X connect 33 1 34 1;
#X connect 33 2 30 0;
#X connect 33 3 31 0;
#X connect 34 0 0 0;
#X connect 34 0 7 0;
#X connect 35 0 0 1;
#X connect 36 0 18 0;
#X connect 37 0 38 0;
#X connect 37 1 39 0;
#X connect 38 0 5 0;
#X connect 39 0 5 0;
