{
	"patcher" : 	{
		"fileversion" : 1,
		"rect" : [ 67.0, 231.0, 1182.0, 549.0 ],
		"bglocked" : 0,
		"defrect" : [ 67.0, 231.0, 1182.0, 549.0 ],
		"openrect" : [ 0.0, 0.0, 0.0, 0.0 ],
		"openinpresentation" : 0,
		"default_fontsize" : 12.0,
		"default_fontface" : 0,
		"default_fontname" : "Arial",
		"gridonopen" : 0,
		"gridsize" : [ 5.0, 5.0 ],
		"gridsnaponopen" : 0,
		"toolbarvisible" : 1,
		"boxanimatetime" : 200,
		"imprint" : 0,
		"boxes" : [ 			{
				"box" : 				{
					"maxclass" : "newobj",
					"text" : "omx.5band~",
					"patching_rect" : [ 490.0, 350.0, 77.0, 20.0 ],
					"outlettype" : [ "signal", "signal", "list", "list" ],
					"id" : "obj-68",
					"fontname" : "Arial",
					"fontsize" : 12.0,
					"numinlets" : 2,
					"numoutlets" : 4
				}

			}
, 			{
				"box" : 				{
					"maxclass" : "meter~",
					"patching_rect" : [ 555.0, 395.0, 80.0, 13.0 ],
					"outlettype" : [ "float" ],
					"id" : "obj-67",
					"numinlets" : 1,
					"numoutlets" : 1
				}

			}
, 			{
				"box" : 				{
					"maxclass" : "newobj",
					"text" : "clip~ -0.05 0.05",
					"patching_rect" : [ 460.0, 290.0, 93.0, 20.0 ],
					"outlettype" : [ "signal" ],
					"id" : "obj-65",
					"fontname" : "Arial",
					"fontsize" : 12.0,
					"numinlets" : 3,
					"numoutlets" : 1
				}

			}
, 			{
				"box" : 				{
					"maxclass" : "message",
					"text" : "0.2",
					"patching_rect" : [ 265.0, 120.0, 32.5, 18.0 ],
					"outlettype" : [ "" ],
					"id" : "obj-62",
					"fontname" : "Arial",
					"fontsize" : 12.0,
					"numinlets" : 2,
					"numoutlets" : 1
				}

			}
, 			{
				"box" : 				{
					"maxclass" : "message",
					"text" : "48",
					"patching_rect" : [ 140.0, 70.0, 32.5, 18.0 ],
					"outlettype" : [ "" ],
					"id" : "obj-53",
					"fontname" : "Arial",
					"fontsize" : 12.0,
					"numinlets" : 2,
					"numoutlets" : 1
				}

			}
, 			{
				"box" : 				{
					"maxclass" : "message",
					"text" : "36",
					"patching_rect" : [ 125.0, 55.0, 32.5, 18.0 ],
					"outlettype" : [ "" ],
					"id" : "obj-52",
					"fontname" : "Arial",
					"fontsize" : 12.0,
					"numinlets" : 2,
					"numoutlets" : 1
				}

			}
, 			{
				"box" : 				{
					"maxclass" : "message",
					"text" : "24",
					"patching_rect" : [ 90.0, 50.0, 32.5, 18.0 ],
					"outlettype" : [ "" ],
					"id" : "obj-50",
					"fontname" : "Arial",
					"fontsize" : 12.0,
					"numinlets" : 2,
					"numoutlets" : 1
				}

			}
, 			{
				"box" : 				{
					"maxclass" : "message",
					"text" : "2",
					"patching_rect" : [ 146.0, 276.0, 32.5, 18.0 ],
					"outlettype" : [ "" ],
					"id" : "obj-64",
					"fontname" : "Arial",
					"fontsize" : 12.0,
					"numinlets" : 2,
					"numoutlets" : 1
				}

			}
, 			{
				"box" : 				{
					"maxclass" : "newobj",
					"text" : "slg.sel-princ 2",
					"patching_rect" : [ 112.0, 311.0, 85.0, 20.0 ],
					"outlettype" : [ "" ],
					"id" : "obj-60",
					"fontname" : "Arial",
					"fontsize" : 12.0,
					"numinlets" : 3,
					"numoutlets" : 1
				}

			}
, 			{
				"box" : 				{
					"maxclass" : "message",
					"text" : "63 66 68 70 73 75 78 80 82 85 87 90 92 94",
					"patching_rect" : [ 178.0, 288.0, 241.0, 18.0 ],
					"outlettype" : [ "" ],
					"id" : "obj-47",
					"fontname" : "Arial",
					"fontsize" : 12.0,
					"numinlets" : 2,
					"numoutlets" : 1
				}

			}
, 			{
				"box" : 				{
					"maxclass" : "newobj",
					"text" : "+",
					"patching_rect" : [ 412.0, 247.0, 32.5, 20.0 ],
					"outlettype" : [ "int" ],
					"id" : "obj-46",
					"fontname" : "Arial",
					"fontsize" : 12.0,
					"numinlets" : 2,
					"numoutlets" : 1
				}

			}
, 			{
				"box" : 				{
					"maxclass" : "flonum",
					"patching_rect" : [ 413.0, 272.0, 50.0, 20.0 ],
					"outlettype" : [ "float", "bang" ],
					"id" : "obj-44",
					"fontname" : "Arial",
					"fontsize" : 12.0,
					"numinlets" : 1,
					"numoutlets" : 2
				}

			}
, 			{
				"box" : 				{
					"maxclass" : "newobj",
					"text" : "omx.peaklim~",
					"patching_rect" : [ 465.0, 315.0, 85.0, 20.0 ],
					"outlettype" : [ "signal", "signal", "list", "list" ],
					"id" : "obj-41",
					"fontname" : "Arial",
					"fontsize" : 12.0,
					"numinlets" : 2,
					"numoutlets" : 4
				}

			}
, 			{
				"box" : 				{
					"maxclass" : "newobj",
					"text" : "s ctl",
					"patching_rect" : [ 184.0, 72.0, 32.0, 20.0 ],
					"id" : "obj-40",
					"fontname" : "Arial",
					"fontsize" : 12.0,
					"numinlets" : 1,
					"numoutlets" : 0
				}

			}
, 			{
				"box" : 				{
					"maxclass" : "newobj",
					"text" : "s ctl",
					"patching_rect" : [ 246.0, 233.0, 32.0, 20.0 ],
					"id" : "obj-39",
					"fontname" : "Arial",
					"fontsize" : 12.0,
					"numinlets" : 1,
					"numoutlets" : 0
				}

			}
, 			{
				"box" : 				{
					"maxclass" : "newobj",
					"text" : "s ctl",
					"patching_rect" : [ 326.0, 231.0, 32.0, 20.0 ],
					"id" : "obj-24",
					"fontname" : "Arial",
					"fontsize" : 12.0,
					"numinlets" : 1,
					"numoutlets" : 0
				}

			}
, 			{
				"box" : 				{
					"maxclass" : "newobj",
					"text" : "pack f f",
					"patching_rect" : [ 20.0, 233.0, 49.0, 20.0 ],
					"outlettype" : [ "" ],
					"id" : "obj-18",
					"fontname" : "Arial",
					"fontsize" : 12.0,
					"numinlets" : 2,
					"numoutlets" : 1
				}

			}
, 			{
				"box" : 				{
					"maxclass" : "newobj",
					"text" : "r ctl",
					"patching_rect" : [ 48.0, 251.0, 30.0, 20.0 ],
					"outlettype" : [ "" ],
					"id" : "obj-17",
					"fontname" : "Arial",
					"fontsize" : 12.0,
					"numinlets" : 0,
					"numoutlets" : 1
				}

			}
, 			{
				"box" : 				{
					"maxclass" : "newobj",
					"text" : "lb",
					"patching_rect" : [ 525.0, 0.0, 20.0, 20.0 ],
					"outlettype" : [ "" ],
					"id" : "obj-20",
					"fontname" : "Arial",
					"fontsize" : 12.0,
					"numinlets" : 0,
					"numoutlets" : 1
				}

			}
, 			{
				"box" : 				{
					"maxclass" : "message",
					"text" : "0.55",
					"patching_rect" : [ 259.0, 146.0, 34.0, 18.0 ],
					"outlettype" : [ "" ],
					"id" : "obj-48",
					"fontname" : "Arial",
					"fontsize" : 12.0,
					"numinlets" : 2,
					"numoutlets" : 1
				}

			}
, 			{
				"box" : 				{
					"maxclass" : "newobj",
					"text" : "unpack f f f f",
					"patching_rect" : [ 525.0, 49.0, 76.0, 20.0 ],
					"outlettype" : [ "float", "float", "float", "float" ],
					"id" : "obj-35",
					"fontname" : "Arial",
					"fontsize" : 12.0,
					"numinlets" : 1,
					"numoutlets" : 4
				}

			}
, 			{
				"box" : 				{
					"maxclass" : "message",
					"text" : "50 0 1 1000",
					"patching_rect" : [ 525.0, 22.0, 74.0, 18.0 ],
					"outlettype" : [ "" ],
					"id" : "obj-31",
					"fontname" : "Arial",
					"fontsize" : 12.0,
					"numinlets" : 2,
					"numoutlets" : 1
				}

			}
, 			{
				"box" : 				{
					"maxclass" : "message",
					"text" : "60",
					"patching_rect" : [ 20.0, 175.0, 32.5, 18.0 ],
					"outlettype" : [ "" ],
					"id" : "obj-26",
					"fontname" : "Arial",
					"fontsize" : 12.0,
					"numinlets" : 2,
					"numoutlets" : 1
				}

			}
, 			{
				"box" : 				{
					"maxclass" : "flonum",
					"patching_rect" : [ 236.0, 13.0, 50.0, 20.0 ],
					"outlettype" : [ "float", "bang" ],
					"id" : "obj-45",
					"fontname" : "Arial",
					"fontsize" : 12.0,
					"numinlets" : 1,
					"numoutlets" : 2
				}

			}
, 			{
				"box" : 				{
					"maxclass" : "flonum",
					"patching_rect" : [ 184.0, 12.0, 50.0, 20.0 ],
					"outlettype" : [ "float", "bang" ],
					"id" : "obj-32",
					"fontname" : "Arial",
					"fontsize" : 12.0,
					"numinlets" : 1,
					"numoutlets" : 2
				}

			}
, 			{
				"box" : 				{
					"maxclass" : "message",
					"text" : "vd $1",
					"patching_rect" : [ 236.0, 43.0, 40.0, 18.0 ],
					"outlettype" : [ "" ],
					"id" : "obj-28",
					"fontname" : "Arial",
					"fontsize" : 12.0,
					"numinlets" : 2,
					"numoutlets" : 1
				}

			}
, 			{
				"box" : 				{
					"maxclass" : "message",
					"text" : "vr $1",
					"patching_rect" : [ 184.0, 42.0, 37.0, 18.0 ],
					"outlettype" : [ "" ],
					"id" : "obj-27",
					"fontname" : "Arial",
					"fontsize" : 12.0,
					"numinlets" : 2,
					"numoutlets" : 1
				}

			}
, 			{
				"box" : 				{
					"maxclass" : "newobj",
					"text" : "notein",
					"patching_rect" : [ 128.0, 17.0, 46.0, 20.0 ],
					"outlettype" : [ "int", "int", "int" ],
					"id" : "obj-15",
					"fontname" : "Arial",
					"fontsize" : 12.0,
					"numinlets" : 1,
					"numoutlets" : 3
				}

			}
, 			{
				"box" : 				{
					"maxclass" : "preset",
					"patching_rect" : [ 528.0, 247.0, 100.0, 40.0 ],
					"outlettype" : [ "preset", "int", "preset", "int" ],
					"id" : "obj-19",
					"numinlets" : 1,
					"numoutlets" : 4
				}

			}
, 			{
				"box" : 				{
					"maxclass" : "message",
					"text" : "100",
					"patching_rect" : [ 225.0, 147.0, 32.5, 18.0 ],
					"outlettype" : [ "" ],
					"id" : "obj-16",
					"fontname" : "Arial",
					"fontsize" : 12.0,
					"numinlets" : 2,
					"numoutlets" : 1
				}

			}
, 			{
				"box" : 				{
					"maxclass" : "newobj",
					"text" : "prepend adsr",
					"patching_rect" : [ 524.0, 212.0, 81.0, 20.0 ],
					"outlettype" : [ "" ],
					"id" : "obj-59",
					"fontname" : "Arial",
					"fontsize" : 12.0,
					"numinlets" : 1,
					"numoutlets" : 1
				}

			}
, 			{
				"box" : 				{
					"maxclass" : "newobj",
					"text" : "pak f f f f",
					"patching_rect" : [ 524.0, 189.0, 59.5, 20.0 ],
					"outlettype" : [ "" ],
					"id" : "obj-58",
					"fontname" : "Arial",
					"fontsize" : 12.0,
					"numinlets" : 4,
					"numoutlets" : 1
				}

			}
, 			{
				"box" : 				{
					"maxclass" : "multislider",
					"candicane6" : [ 0.733333, 0.035294, 0.788235, 1.0 ],
					"patching_rect" : [ 580.0, 105.0, 16.0, 79.0 ],
					"slidercolor" : [ 0.4, 0.4, 0.8, 1.0 ],
					"outlettype" : [ "", "" ],
					"bgcolor" : [ 0.811765, 0.827451, 0.941176, 1.0 ],
					"id" : "obj-57",
					"candicane2" : [ 0.145098, 0.203922, 0.356863, 1.0 ],
					"candicane7" : [ 0.878431, 0.243137, 0.145098, 1.0 ],
					"candicane3" : [ 0.290196, 0.411765, 0.713726, 1.0 ],
					"candicane8" : [ 0.027451, 0.447059, 0.501961, 1.0 ],
					"candicane4" : [ 0.439216, 0.619608, 0.070588, 1.0 ],
					"contdata" : 1,
					"numinlets" : 1,
					"bordercolor" : [ 0.4, 0.4, 0.941176, 1.0 ],
					"candicane5" : [ 0.584314, 0.827451, 0.431373, 1.0 ],
					"setstyle" : 1,
					"numoutlets" : 2,
					"setminmax" : [ 0.0, 5000.0 ],
					"peakcolor" : [ 0.4, 0.4, 0.941176, 1.0 ]
				}

			}
, 			{
				"box" : 				{
					"maxclass" : "multislider",
					"candicane6" : [ 0.733333, 0.035294, 0.788235, 1.0 ],
					"patching_rect" : [ 560.0, 105.0, 16.0, 79.0 ],
					"slidercolor" : [ 0.4, 0.4, 0.8, 1.0 ],
					"outlettype" : [ "", "" ],
					"bgcolor" : [ 0.811765, 0.827451, 0.941176, 1.0 ],
					"id" : "obj-56",
					"candicane2" : [ 0.145098, 0.203922, 0.356863, 1.0 ],
					"candicane7" : [ 0.878431, 0.243137, 0.145098, 1.0 ],
					"candicane3" : [ 0.290196, 0.411765, 0.713726, 1.0 ],
					"candicane8" : [ 0.027451, 0.447059, 0.501961, 1.0 ],
					"candicane4" : [ 0.439216, 0.619608, 0.070588, 1.0 ],
					"contdata" : 1,
					"numinlets" : 1,
					"bordercolor" : [ 0.4, 0.4, 0.941176, 1.0 ],
					"candicane5" : [ 0.584314, 0.827451, 0.431373, 1.0 ],
					"setstyle" : 1,
					"numoutlets" : 2,
					"setminmax" : [ 0.0, 1.0 ],
					"peakcolor" : [ 0.4, 0.4, 0.941176, 1.0 ]
				}

			}
, 			{
				"box" : 				{
					"maxclass" : "multislider",
					"candicane6" : [ 0.733333, 0.035294, 0.788235, 1.0 ],
					"patching_rect" : [ 543.0, 104.0, 16.0, 79.0 ],
					"slidercolor" : [ 0.4, 0.4, 0.8, 1.0 ],
					"outlettype" : [ "", "" ],
					"bgcolor" : [ 0.811765, 0.827451, 0.941176, 1.0 ],
					"id" : "obj-55",
					"candicane2" : [ 0.145098, 0.203922, 0.356863, 1.0 ],
					"candicane7" : [ 0.878431, 0.243137, 0.145098, 1.0 ],
					"candicane3" : [ 0.290196, 0.411765, 0.713726, 1.0 ],
					"candicane8" : [ 0.027451, 0.447059, 0.501961, 1.0 ],
					"candicane4" : [ 0.439216, 0.619608, 0.070588, 1.0 ],
					"contdata" : 1,
					"numinlets" : 1,
					"bordercolor" : [ 0.4, 0.4, 0.941176, 1.0 ],
					"candicane5" : [ 0.584314, 0.827451, 0.431373, 1.0 ],
					"setstyle" : 1,
					"numoutlets" : 2,
					"setminmax" : [ 0.0, 10000.0 ],
					"peakcolor" : [ 0.4, 0.4, 0.941176, 1.0 ]
				}

			}
, 			{
				"box" : 				{
					"maxclass" : "multislider",
					"candicane6" : [ 0.733333, 0.035294, 0.788235, 1.0 ],
					"patching_rect" : [ 525.0, 105.0, 16.0, 79.0 ],
					"slidercolor" : [ 0.4, 0.4, 0.8, 1.0 ],
					"outlettype" : [ "", "" ],
					"bgcolor" : [ 0.811765, 0.827451, 0.941176, 1.0 ],
					"id" : "obj-54",
					"candicane2" : [ 0.145098, 0.203922, 0.356863, 1.0 ],
					"candicane7" : [ 0.878431, 0.243137, 0.145098, 1.0 ],
					"candicane3" : [ 0.290196, 0.411765, 0.713726, 1.0 ],
					"candicane8" : [ 0.027451, 0.447059, 0.501961, 1.0 ],
					"candicane4" : [ 0.439216, 0.619608, 0.070588, 1.0 ],
					"contdata" : 1,
					"numinlets" : 1,
					"bordercolor" : [ 0.4, 0.4, 0.941176, 1.0 ],
					"candicane5" : [ 0.584314, 0.827451, 0.431373, 1.0 ],
					"setstyle" : 1,
					"numoutlets" : 2,
					"setminmax" : [ 0.0, 500.0 ],
					"peakcolor" : [ 0.4, 0.4, 0.941176, 1.0 ]
				}

			}
, 			{
				"box" : 				{
					"maxclass" : "flonum",
					"patching_rect" : [ 246.0, 184.0, 50.0, 20.0 ],
					"outlettype" : [ "float", "bang" ],
					"id" : "obj-51",
					"fontname" : "Arial",
					"fontsize" : 12.0,
					"numinlets" : 1,
					"numoutlets" : 2
				}

			}
, 			{
				"box" : 				{
					"maxclass" : "message",
					"text" : "decay $1",
					"patching_rect" : [ 246.0, 211.0, 59.0, 18.0 ],
					"outlettype" : [ "" ],
					"id" : "obj-49",
					"fontname" : "Arial",
					"fontsize" : 12.0,
					"numinlets" : 2,
					"numoutlets" : 1
				}

			}
, 			{
				"box" : 				{
					"maxclass" : "newobj",
					"text" : "r help-transform",
					"patching_rect" : [ 76.0, 251.0, 95.0, 20.0 ],
					"outlettype" : [ "" ],
					"id" : "obj-42",
					"fontname" : "Arial",
					"fontsize" : 12.0,
					"numinlets" : 0,
					"numoutlets" : 1
				}

			}
, 			{
				"box" : 				{
					"maxclass" : "message",
					"text" : "y $1",
					"patching_rect" : [ 472.0, 185.0, 33.0, 18.0 ],
					"outlettype" : [ "" ],
					"id" : "obj-38",
					"fontname" : "Arial",
					"fontsize" : 12.0,
					"numinlets" : 2,
					"numoutlets" : 1
				}

			}
, 			{
				"box" : 				{
					"maxclass" : "message",
					"text" : "x $1",
					"patching_rect" : [ 326.0, 189.0, 33.0, 18.0 ],
					"outlettype" : [ "" ],
					"id" : "obj-37",
					"fontname" : "Arial",
					"fontsize" : 12.0,
					"numinlets" : 2,
					"numoutlets" : 1
				}

			}
, 			{
				"box" : 				{
					"maxclass" : "newobj",
					"text" : "slg.trisynth~",
					"patching_rect" : [ 20.0, 277.0, 75.0, 20.0 ],
					"outlettype" : [ "signal", "list", "" ],
					"id" : "obj-2",
					"fontname" : "Arial",
					"fontsize" : 12.0,
					"numinlets" : 3,
					"numoutlets" : 3
				}

			}
, 			{
				"box" : 				{
					"maxclass" : "bpatcher",
					"patching_rect" : [ 19.0, 350.0, 300.0, 70.0 ],
					"presentation" : 1,
					"id" : "obj-165",
					"name" : "slg.audioMonitor.maxpat",
					"numinlets" : 2,
					"presentation_rect" : [ 505.0, 375.0, 300.0, 70.0 ],
					"args" : [  ],
					"numoutlets" : 0
				}

			}
, 			{
				"box" : 				{
					"maxclass" : "newobj",
					"text" : "s help-transform",
					"patching_rect" : [ 661.0, 173.0, 85.0, 17.0 ],
					"id" : "obj-157",
					"fontname" : "Arial",
					"fontsize" : 9.0,
					"numinlets" : 1,
					"numoutlets" : 0
				}

			}
, 			{
				"box" : 				{
					"maxclass" : "comment",
					"text" : "<------------",
					"patching_rect" : [ 985.0, 352.0, 114.0, 17.0 ],
					"id" : "obj-135",
					"fontname" : "Arial",
					"fontsize" : 9.0,
					"numinlets" : 1,
					"numoutlets" : 0
				}

			}
, 			{
				"box" : 				{
					"maxclass" : "newobj",
					"text" : "p lfo",
					"patching_rect" : [ 985.0, 415.0, 30.0, 17.0 ],
					"outlettype" : [ "float" ],
					"id" : "obj-141",
					"fontname" : "Arial",
					"fontsize" : 9.0,
					"numinlets" : 1,
					"numoutlets" : 1,
					"patcher" : 					{
						"fileversion" : 1,
						"rect" : [ 717.0, 369.0, 600.0, 426.0 ],
						"bglocked" : 0,
						"defrect" : [ 717.0, 369.0, 600.0, 426.0 ],
						"openrect" : [ 0.0, 0.0, 0.0, 0.0 ],
						"openinpresentation" : 0,
						"default_fontsize" : 12.0,
						"default_fontface" : 0,
						"default_fontname" : "Arial",
						"gridonopen" : 0,
						"gridsize" : [ 5.0, 5.0 ],
						"gridsnaponopen" : 0,
						"toolbarvisible" : 1,
						"boxanimatetime" : 200,
						"imprint" : 0,
						"boxes" : [ 							{
								"box" : 								{
									"maxclass" : "flonum",
									"patching_rect" : [ 60.0, 143.0, 118.0, 17.0 ],
									"outlettype" : [ "float", "bang" ],
									"bgcolor" : [ 0.866667, 0.866667, 0.866667, 1.0 ],
									"id" : "obj-1",
									"fontname" : "Arial",
									"triscale" : 0.9,
									"htextcolor" : [ 0.870588, 0.870588, 0.870588, 1.0 ],
									"fontsize" : 9.0,
									"numinlets" : 1,
									"numoutlets" : 2
								}

							}
, 							{
								"box" : 								{
									"maxclass" : "newobj",
									"text" : "* 0.02",
									"patching_rect" : [ 60.0, 97.0, 49.0, 17.0 ],
									"outlettype" : [ "float" ],
									"id" : "obj-2",
									"fontname" : "Arial",
									"fontsize" : 9.0,
									"numinlets" : 2,
									"numoutlets" : 1
								}

							}
, 							{
								"box" : 								{
									"maxclass" : "newobj",
									"text" : "snapshot~ 20.",
									"patching_rect" : [ 60.0, 76.0, 73.0, 17.0 ],
									"outlettype" : [ "float" ],
									"id" : "obj-3",
									"fontname" : "Arial",
									"fontsize" : 9.0,
									"numinlets" : 2,
									"numoutlets" : 1
								}

							}
, 							{
								"box" : 								{
									"maxclass" : "newobj",
									"text" : "+ 1.",
									"patching_rect" : [ 60.0, 122.0, 27.0, 17.0 ],
									"outlettype" : [ "float" ],
									"id" : "obj-4",
									"fontname" : "Arial",
									"fontsize" : 9.0,
									"numinlets" : 2,
									"numoutlets" : 1
								}

							}
, 							{
								"box" : 								{
									"maxclass" : "newobj",
									"text" : "cycle~ 5.",
									"patching_rect" : [ 60.0, 52.0, 52.0, 17.0 ],
									"outlettype" : [ "signal" ],
									"id" : "obj-5",
									"fontname" : "Arial",
									"fontsize" : 9.0,
									"numinlets" : 2,
									"numoutlets" : 1
								}

							}
, 							{
								"box" : 								{
									"maxclass" : "inlet",
									"patching_rect" : [ 39.0, 51.0, 15.0, 15.0 ],
									"outlettype" : [ "int" ],
									"id" : "obj-6",
									"numinlets" : 0,
									"numoutlets" : 1,
									"comment" : ""
								}

							}
, 							{
								"box" : 								{
									"maxclass" : "outlet",
									"patching_rect" : [ 60.0, 163.0, 15.0, 15.0 ],
									"id" : "obj-7",
									"numinlets" : 1,
									"numoutlets" : 0,
									"comment" : ""
								}

							}
 ],
						"lines" : [ 							{
								"patchline" : 								{
									"source" : [ "obj-5", 0 ],
									"destination" : [ "obj-3", 0 ],
									"hidden" : 0,
									"midpoints" : [  ]
								}

							}
, 							{
								"patchline" : 								{
									"source" : [ "obj-6", 0 ],
									"destination" : [ "obj-3", 0 ],
									"hidden" : 0,
									"midpoints" : [  ]
								}

							}
, 							{
								"patchline" : 								{
									"source" : [ "obj-3", 0 ],
									"destination" : [ "obj-2", 0 ],
									"hidden" : 0,
									"midpoints" : [  ]
								}

							}
, 							{
								"patchline" : 								{
									"source" : [ "obj-2", 0 ],
									"destination" : [ "obj-4", 0 ],
									"hidden" : 0,
									"midpoints" : [  ]
								}

							}
, 							{
								"patchline" : 								{
									"source" : [ "obj-4", 0 ],
									"destination" : [ "obj-1", 0 ],
									"hidden" : 0,
									"midpoints" : [  ]
								}

							}
, 							{
								"patchline" : 								{
									"source" : [ "obj-1", 0 ],
									"destination" : [ "obj-7", 0 ],
									"hidden" : 0,
									"midpoints" : [  ]
								}

							}
 ]
					}
,
					"saved_object_attributes" : 					{
						"default_fontface" : 0,
						"fontname" : "Arial",
						"default_fontname" : "Arial",
						"globalpatchername" : "",
						"default_fontsize" : 12.0,
						"fontface" : 0,
						"fontsize" : 12.0
					}

				}

			}
, 			{
				"box" : 				{
					"maxclass" : "comment",
					"text" : "turn on vibrato on the even partials to make the soprano \"appear\"",
					"linecount" : 3,
					"patching_rect" : [ 989.0, 365.0, 114.0, 38.0 ],
					"id" : "obj-145",
					"fontname" : "Arial",
					"fontsize" : 9.0,
					"numinlets" : 1,
					"numoutlets" : 0
				}

			}
, 			{
				"box" : 				{
					"maxclass" : "message",
					"text" : "evenfrequencyscale $1",
					"patching_rect" : [ 966.0, 467.0, 113.0, 15.0 ],
					"outlettype" : [ "" ],
					"bgcolor" : [ 0.611765, 0.701961, 1.0, 1.0 ],
					"id" : "obj-152",
					"fontname" : "Arial",
					"fontsize" : 9.0,
					"numinlets" : 2,
					"numoutlets" : 1
				}

			}
, 			{
				"box" : 				{
					"maxclass" : "newobj",
					"text" : "s help-transform",
					"patching_rect" : [ 966.0, 490.0, 76.0, 17.0 ],
					"id" : "obj-153",
					"fontname" : "Arial",
					"fontsize" : 9.0,
					"numinlets" : 1,
					"numoutlets" : 0
				}

			}
, 			{
				"box" : 				{
					"maxclass" : "toggle",
					"patching_rect" : [ 966.0, 350.0, 15.0, 15.0 ],
					"outlettype" : [ "int" ],
					"id" : "obj-155",
					"numinlets" : 1,
					"numoutlets" : 1
				}

			}
, 			{
				"box" : 				{
					"maxclass" : "newobj",
					"text" : "gate",
					"patching_rect" : [ 966.0, 446.0, 29.0, 17.0 ],
					"outlettype" : [ "" ],
					"id" : "obj-156",
					"fontname" : "Arial",
					"fontsize" : 9.0,
					"numinlets" : 2,
					"numoutlets" : 1
				}

			}
, 			{
				"box" : 				{
					"maxclass" : "comment",
					"text" : "(This changes the pitch, while introducing inharmonicity to the model)",
					"linecount" : 2,
					"patching_rect" : [ 757.0, 24.0, 183.0, 27.0 ],
					"id" : "obj-114",
					"fontname" : "Arial",
					"fontsize" : 9.0,
					"numinlets" : 1,
					"numoutlets" : 0
				}

			}
, 			{
				"box" : 				{
					"maxclass" : "comment",
					"text" : "Add to each frequency",
					"patching_rect" : [ 757.0, 5.0, 110.0, 17.0 ],
					"id" : "obj-119",
					"fontname" : "Arial",
					"fontsize" : 9.0,
					"numinlets" : 1,
					"numoutlets" : 0
				}

			}
, 			{
				"box" : 				{
					"maxclass" : "comment",
					"text" : "transpose",
					"patching_rect" : [ 656.0, 40.0, 54.0, 17.0 ],
					"id" : "obj-121",
					"fontname" : "Arial",
					"fontsize" : 9.0,
					"numinlets" : 1,
					"numoutlets" : 0
				}

			}
, 			{
				"box" : 				{
					"maxclass" : "flonum",
					"patching_rect" : [ 757.0, 135.0, 35.0, 17.0 ],
					"outlettype" : [ "float", "bang" ],
					"bgcolor" : [ 0.866667, 0.866667, 0.866667, 1.0 ],
					"id" : "obj-123",
					"fontname" : "Arial",
					"triscale" : 0.9,
					"htextcolor" : [ 0.870588, 0.870588, 0.870588, 1.0 ],
					"fontsize" : 9.0,
					"numinlets" : 1,
					"numoutlets" : 2
				}

			}
, 			{
				"box" : 				{
					"maxclass" : "message",
					"text" : "frequency-add $1",
					"patching_rect" : [ 757.0, 156.0, 92.0, 15.0 ],
					"outlettype" : [ "" ],
					"bgcolor" : [ 0.611765, 0.701961, 1.0, 1.0 ],
					"id" : "obj-125",
					"fontname" : "Arial",
					"fontsize" : 9.0,
					"numinlets" : 2,
					"numoutlets" : 1
				}

			}
, 			{
				"box" : 				{
					"maxclass" : "multislider",
					"candicane6" : [ 0.733333, 0.035294, 0.788235, 1.0 ],
					"patching_rect" : [ 760.0, 53.0, 16.0, 79.0 ],
					"slidercolor" : [ 0.4, 0.4, 0.8, 1.0 ],
					"outlettype" : [ "", "" ],
					"bgcolor" : [ 0.811765, 0.827451, 0.941176, 1.0 ],
					"id" : "obj-129",
					"candicane2" : [ 0.145098, 0.203922, 0.356863, 1.0 ],
					"candicane7" : [ 0.878431, 0.243137, 0.145098, 1.0 ],
					"candicane3" : [ 0.290196, 0.411765, 0.713726, 1.0 ],
					"candicane8" : [ 0.027451, 0.447059, 0.501961, 1.0 ],
					"candicane4" : [ 0.439216, 0.619608, 0.070588, 1.0 ],
					"contdata" : 1,
					"numinlets" : 1,
					"bordercolor" : [ 0.4, 0.4, 0.8, 1.0 ],
					"candicane5" : [ 0.584314, 0.827451, 0.431373, 1.0 ],
					"setstyle" : 1,
					"numoutlets" : 2,
					"setminmax" : [ -250.0, 250.0 ],
					"peakcolor" : [ 0.498039, 0.498039, 0.498039, 1.0 ]
				}

			}
, 			{
				"box" : 				{
					"maxclass" : "flonum",
					"patching_rect" : [ 661.0, 138.0, 35.0, 17.0 ],
					"outlettype" : [ "float", "bang" ],
					"bgcolor" : [ 0.866667, 0.866667, 0.866667, 1.0 ],
					"id" : "obj-14",
					"fontname" : "Arial",
					"triscale" : 0.9,
					"htextcolor" : [ 0.870588, 0.870588, 0.870588, 1.0 ],
					"fontsize" : 9.0,
					"numinlets" : 1,
					"numoutlets" : 2
				}

			}
, 			{
				"box" : 				{
					"maxclass" : "multislider",
					"candicane6" : [ 0.733333, 0.035294, 0.788235, 1.0 ],
					"patching_rect" : [ 664.0, 54.0, 16.0, 79.0 ],
					"slidercolor" : [ 0.4, 0.4, 0.8, 1.0 ],
					"outlettype" : [ "", "" ],
					"bgcolor" : [ 0.811765, 0.827451, 0.941176, 1.0 ],
					"id" : "obj-130",
					"candicane2" : [ 0.145098, 0.203922, 0.356863, 1.0 ],
					"candicane7" : [ 0.878431, 0.243137, 0.145098, 1.0 ],
					"candicane3" : [ 0.290196, 0.411765, 0.713726, 1.0 ],
					"candicane8" : [ 0.027451, 0.447059, 0.501961, 1.0 ],
					"candicane4" : [ 0.439216, 0.619608, 0.070588, 1.0 ],
					"contdata" : 1,
					"numinlets" : 1,
					"bordercolor" : [ 0.4, 0.4, 0.941176, 1.0 ],
					"candicane5" : [ 0.584314, 0.827451, 0.431373, 1.0 ],
					"setstyle" : 1,
					"numoutlets" : 2,
					"setminmax" : [ 0.8, 2.0 ],
					"peakcolor" : [ 0.4, 0.4, 0.941176, 1.0 ]
				}

			}
, 			{
				"box" : 				{
					"maxclass" : "message",
					"text" : "frequency-scale $1",
					"patching_rect" : [ 661.0, 156.0, 95.0, 15.0 ],
					"outlettype" : [ "" ],
					"bgcolor" : [ 0.611765, 0.701961, 1.0, 1.0 ],
					"id" : "obj-134",
					"fontname" : "Arial",
					"fontsize" : 9.0,
					"numinlets" : 2,
					"numoutlets" : 1
				}

			}
, 			{
				"box" : 				{
					"maxclass" : "multislider",
					"candicane6" : [ 0.733333, 0.035294, 0.788235, 1.0 ],
					"patching_rect" : [ 855.0, 200.0, 16.0, 76.0 ],
					"slidercolor" : [ 0.4, 0.4, 0.8, 1.0 ],
					"outlettype" : [ "", "" ],
					"bgcolor" : [ 0.811765, 0.827451, 0.941176, 1.0 ],
					"id" : "obj-1",
					"candicane2" : [ 0.145098, 0.203922, 0.356863, 1.0 ],
					"candicane7" : [ 0.878431, 0.243137, 0.145098, 1.0 ],
					"candicane3" : [ 0.290196, 0.411765, 0.713726, 1.0 ],
					"candicane8" : [ 0.027451, 0.447059, 0.501961, 1.0 ],
					"candicane4" : [ 0.439216, 0.619608, 0.070588, 1.0 ],
					"contdata" : 1,
					"numinlets" : 1,
					"bordercolor" : [ 0.4, 0.4, 0.941176, 1.0 ],
					"candicane5" : [ 0.584314, 0.827451, 0.431373, 1.0 ],
					"setstyle" : 1,
					"numoutlets" : 2,
					"setminmax" : [ 0.5, 2.0 ],
					"peakcolor" : [ 0.4, 0.4, 0.941176, 1.0 ]
				}

			}
, 			{
				"box" : 				{
					"maxclass" : "multislider",
					"candicane6" : [ 0.733333, 0.035294, 0.788235, 1.0 ],
					"patching_rect" : [ 961.0, 200.0, 15.0, 80.0 ],
					"slidercolor" : [ 0.4, 0.4, 0.8, 1.0 ],
					"outlettype" : [ "", "" ],
					"bgcolor" : [ 0.811765, 0.827451, 0.941176, 1.0 ],
					"id" : "obj-103",
					"candicane2" : [ 0.145098, 0.203922, 0.356863, 1.0 ],
					"candicane7" : [ 0.878431, 0.243137, 0.145098, 1.0 ],
					"candicane3" : [ 0.290196, 0.411765, 0.713726, 1.0 ],
					"candicane8" : [ 0.027451, 0.447059, 0.501961, 1.0 ],
					"candicane4" : [ 0.439216, 0.619608, 0.070588, 1.0 ],
					"contdata" : 1,
					"numinlets" : 1,
					"bordercolor" : [ 0.4, 0.4, 0.941176, 1.0 ],
					"candicane5" : [ 0.584314, 0.827451, 0.431373, 1.0 ],
					"setstyle" : 1,
					"numoutlets" : 2,
					"setminmax" : [ 0.8, 2.0 ],
					"peakcolor" : [ 0.4, 0.4, 0.941176, 1.0 ]
				}

			}
, 			{
				"box" : 				{
					"maxclass" : "multislider",
					"candicane6" : [ 0.733333, 0.035294, 0.788235, 1.0 ],
					"patching_rect" : [ 667.0, 199.0, 18.0, 79.0 ],
					"slidercolor" : [ 0.4, 0.4, 0.8, 1.0 ],
					"outlettype" : [ "", "" ],
					"bgcolor" : [ 0.811765, 0.827451, 0.941176, 1.0 ],
					"id" : "obj-3",
					"candicane2" : [ 0.145098, 0.203922, 0.356863, 1.0 ],
					"candicane7" : [ 0.878431, 0.243137, 0.145098, 1.0 ],
					"candicane3" : [ 0.290196, 0.411765, 0.713726, 1.0 ],
					"candicane8" : [ 0.027451, 0.447059, 0.501961, 1.0 ],
					"candicane4" : [ 0.439216, 0.619608, 0.070588, 1.0 ],
					"contdata" : 1,
					"numinlets" : 1,
					"bordercolor" : [ 0.4, 0.4, 0.8, 1.0 ],
					"candicane5" : [ 0.584314, 0.827451, 0.431373, 1.0 ],
					"setstyle" : 1,
					"numoutlets" : 2,
					"setminmax" : [ 0.0, 2.0 ],
					"peakcolor" : [ 0.498039, 0.498039, 0.498039, 1.0 ]
				}

			}
, 			{
				"box" : 				{
					"maxclass" : "flonum",
					"patching_rect" : [ 665.0, 286.0, 35.0, 17.0 ],
					"outlettype" : [ "float", "bang" ],
					"bgcolor" : [ 0.866667, 0.866667, 0.866667, 1.0 ],
					"id" : "obj-4",
					"fontname" : "Arial",
					"triscale" : 0.9,
					"htextcolor" : [ 0.870588, 0.870588, 0.870588, 1.0 ],
					"fontsize" : 9.0,
					"numinlets" : 1,
					"numoutlets" : 2
				}

			}
, 			{
				"box" : 				{
					"maxclass" : "flonum",
					"patching_rect" : [ 753.0, 286.0, 35.0, 17.0 ],
					"outlettype" : [ "float", "bang" ],
					"bgcolor" : [ 0.866667, 0.866667, 0.866667, 1.0 ],
					"id" : "obj-106",
					"fontname" : "Arial",
					"triscale" : 0.9,
					"htextcolor" : [ 0.870588, 0.870588, 0.870588, 1.0 ],
					"fontsize" : 9.0,
					"numinlets" : 1,
					"numoutlets" : 2
				}

			}
, 			{
				"box" : 				{
					"maxclass" : "flonum",
					"patching_rect" : [ 852.0, 286.0, 35.0, 17.0 ],
					"outlettype" : [ "float", "bang" ],
					"bgcolor" : [ 0.866667, 0.866667, 0.866667, 1.0 ],
					"id" : "obj-107",
					"fontname" : "Arial",
					"triscale" : 0.9,
					"htextcolor" : [ 0.870588, 0.870588, 0.870588, 1.0 ],
					"fontsize" : 9.0,
					"numinlets" : 1,
					"numoutlets" : 2
				}

			}
, 			{
				"box" : 				{
					"maxclass" : "flonum",
					"patching_rect" : [ 957.0, 286.0, 35.0, 17.0 ],
					"outlettype" : [ "float", "bang" ],
					"bgcolor" : [ 0.866667, 0.866667, 0.866667, 1.0 ],
					"id" : "obj-108",
					"fontname" : "Arial",
					"triscale" : 0.9,
					"htextcolor" : [ 0.870588, 0.870588, 0.870588, 1.0 ],
					"fontsize" : 9.0,
					"numinlets" : 1,
					"numoutlets" : 2
				}

			}
, 			{
				"box" : 				{
					"maxclass" : "message",
					"text" : "evenfrequencyscale $1",
					"patching_rect" : [ 957.0, 303.0, 113.0, 15.0 ],
					"outlettype" : [ "" ],
					"bgcolor" : [ 0.611765, 0.701961, 1.0, 1.0 ],
					"id" : "obj-109",
					"fontname" : "Arial",
					"fontsize" : 9.0,
					"numinlets" : 2,
					"numoutlets" : 1
				}

			}
, 			{
				"box" : 				{
					"maxclass" : "newobj",
					"text" : "s help-transform",
					"patching_rect" : [ 665.0, 338.0, 85.0, 17.0 ],
					"id" : "obj-110",
					"fontname" : "Arial",
					"fontsize" : 9.0,
					"numinlets" : 1,
					"numoutlets" : 0
				}

			}
, 			{
				"box" : 				{
					"maxclass" : "message",
					"text" : "oddfrequencyscale $1",
					"patching_rect" : [ 852.0, 303.0, 105.0, 15.0 ],
					"outlettype" : [ "" ],
					"bgcolor" : [ 0.611765, 0.701961, 1.0, 1.0 ],
					"id" : "obj-111",
					"fontname" : "Arial",
					"fontsize" : 9.0,
					"numinlets" : 2,
					"numoutlets" : 1
				}

			}
, 			{
				"box" : 				{
					"maxclass" : "multislider",
					"candicane6" : [ 0.733333, 0.035294, 0.788235, 1.0 ],
					"patching_rect" : [ 757.0, 199.0, 15.0, 81.0 ],
					"slidercolor" : [ 0.4, 0.4, 0.8, 1.0 ],
					"outlettype" : [ "", "" ],
					"bgcolor" : [ 0.811765, 0.827451, 0.941176, 1.0 ],
					"id" : "obj-112",
					"candicane2" : [ 0.145098, 0.203922, 0.356863, 1.0 ],
					"candicane7" : [ 0.878431, 0.243137, 0.145098, 1.0 ],
					"candicane3" : [ 0.290196, 0.411765, 0.713726, 1.0 ],
					"candicane8" : [ 0.027451, 0.447059, 0.501961, 1.0 ],
					"candicane4" : [ 0.439216, 0.619608, 0.070588, 1.0 ],
					"contdata" : 1,
					"numinlets" : 1,
					"bordercolor" : [ 0.4, 0.4, 0.8, 1.0 ],
					"candicane5" : [ 0.584314, 0.827451, 0.431373, 1.0 ],
					"setstyle" : 1,
					"numoutlets" : 2,
					"setminmax" : [ 0.0, 2.0 ],
					"peakcolor" : [ 0.498039, 0.498039, 0.498039, 1.0 ]
				}

			}
, 			{
				"box" : 				{
					"maxclass" : "message",
					"text" : "evengainscale $1",
					"patching_rect" : [ 753.0, 303.0, 85.0, 15.0 ],
					"outlettype" : [ "" ],
					"bgcolor" : [ 0.611765, 0.701961, 1.0, 1.0 ],
					"id" : "obj-113",
					"fontname" : "Arial",
					"fontsize" : 9.0,
					"numinlets" : 2,
					"numoutlets" : 1
				}

			}
, 			{
				"box" : 				{
					"maxclass" : "message",
					"text" : "oddgainscale $1",
					"patching_rect" : [ 665.0, 303.0, 80.0, 15.0 ],
					"outlettype" : [ "" ],
					"bgcolor" : [ 0.611765, 0.701961, 1.0, 1.0 ],
					"id" : "obj-13",
					"fontname" : "Arial",
					"fontsize" : 9.0,
					"numinlets" : 2,
					"numoutlets" : 1
				}

			}
, 			{
				"box" : 				{
					"maxclass" : "flonum",
					"patching_rect" : [ 665.0, 449.0, 35.0, 17.0 ],
					"outlettype" : [ "float", "bang" ],
					"bgcolor" : [ 0.866667, 0.866667, 0.866667, 1.0 ],
					"id" : "obj-22",
					"fontname" : "Arial",
					"triscale" : 0.9,
					"htextcolor" : [ 0.870588, 0.870588, 0.870588, 1.0 ],
					"fontsize" : 9.0,
					"numinlets" : 1,
					"numoutlets" : 2
				}

			}
, 			{
				"box" : 				{
					"maxclass" : "flonum",
					"patching_rect" : [ 743.0, 449.0, 35.0, 17.0 ],
					"outlettype" : [ "float", "bang" ],
					"bgcolor" : [ 0.866667, 0.866667, 0.866667, 1.0 ],
					"id" : "obj-23",
					"fontname" : "Arial",
					"triscale" : 0.9,
					"htextcolor" : [ 0.870588, 0.870588, 0.870588, 1.0 ],
					"fontsize" : 9.0,
					"numinlets" : 1,
					"numoutlets" : 2
				}

			}
, 			{
				"box" : 				{
					"maxclass" : "flonum",
					"patching_rect" : [ 814.0, 449.0, 35.0, 17.0 ],
					"outlettype" : [ "float", "bang" ],
					"bgcolor" : [ 0.866667, 0.866667, 0.866667, 1.0 ],
					"id" : "obj-92",
					"fontname" : "Arial",
					"triscale" : 0.9,
					"htextcolor" : [ 0.870588, 0.870588, 0.870588, 1.0 ],
					"fontsize" : 9.0,
					"numinlets" : 1,
					"numoutlets" : 2
				}

			}
, 			{
				"box" : 				{
					"maxclass" : "newobj",
					"text" : "s help-transform",
					"patching_rect" : [ 665.0, 501.0, 85.0, 17.0 ],
					"id" : "obj-94",
					"fontname" : "Arial",
					"fontsize" : 9.0,
					"numinlets" : 1,
					"numoutlets" : 0
				}

			}
, 			{
				"box" : 				{
					"maxclass" : "message",
					"text" : "attenuate $1",
					"patching_rect" : [ 814.0, 467.0, 65.0, 15.0 ],
					"outlettype" : [ "" ],
					"bgcolor" : [ 0.611765, 0.701961, 1.0, 1.0 ],
					"id" : "obj-29",
					"fontname" : "Arial",
					"fontsize" : 9.0,
					"numinlets" : 2,
					"numoutlets" : 1
				}

			}
, 			{
				"box" : 				{
					"maxclass" : "multislider",
					"candicane6" : [ 0.733333, 0.035294, 0.788235, 1.0 ],
					"patching_rect" : [ 816.0, 364.0, 19.0, 81.0 ],
					"slidercolor" : [ 0.4, 0.4, 0.941176, 1.0 ],
					"outlettype" : [ "", "" ],
					"bgcolor" : [ 0.811765, 0.827451, 0.980392, 1.0 ],
					"id" : "obj-30",
					"candicane2" : [ 0.145098, 0.203922, 0.356863, 1.0 ],
					"candicane7" : [ 0.878431, 0.243137, 0.145098, 1.0 ],
					"candicane3" : [ 0.290196, 0.411765, 0.713726, 1.0 ],
					"candicane8" : [ 0.027451, 0.447059, 0.501961, 1.0 ],
					"candicane4" : [ 0.439216, 0.619608, 0.070588, 1.0 ],
					"contdata" : 1,
					"numinlets" : 1,
					"bordercolor" : [ 0.4, 0.4, 0.8, 1.0 ],
					"candicane5" : [ 0.584314, 0.827451, 0.431373, 1.0 ],
					"setstyle" : 1,
					"numoutlets" : 2,
					"setminmax" : [ 0.0, 102.0 ],
					"peakcolor" : [ 0.498039, 0.498039, 0.498039, 1.0 ]
				}

			}
, 			{
				"box" : 				{
					"maxclass" : "multislider",
					"candicane6" : [ 0.733333, 0.035294, 0.788235, 1.0 ],
					"patching_rect" : [ 746.0, 363.0, 17.0, 81.0 ],
					"slidercolor" : [ 0.4, 0.4, 0.8, 1.0 ],
					"outlettype" : [ "", "" ],
					"bgcolor" : [ 0.811765, 0.827451, 0.941176, 1.0 ],
					"id" : "obj-95",
					"candicane2" : [ 0.145098, 0.203922, 0.356863, 1.0 ],
					"candicane7" : [ 0.878431, 0.243137, 0.145098, 1.0 ],
					"candicane3" : [ 0.290196, 0.411765, 0.713726, 1.0 ],
					"candicane8" : [ 0.027451, 0.447059, 0.501961, 1.0 ],
					"candicane4" : [ 0.439216, 0.619608, 0.070588, 1.0 ],
					"contdata" : 1,
					"numinlets" : 1,
					"bordercolor" : [ 0.4, 0.4, 0.8, 1.0 ],
					"candicane5" : [ 0.584314, 0.827451, 0.431373, 1.0 ],
					"setstyle" : 1,
					"numoutlets" : 2,
					"setminmax" : [ 0.0, 1.0 ],
					"peakcolor" : [ 0.498039, 0.498039, 0.498039, 1.0 ]
				}

			}
, 			{
				"box" : 				{
					"maxclass" : "message",
					"text" : "gain-scale $1",
					"patching_rect" : [ 743.0, 467.0, 69.0, 15.0 ],
					"outlettype" : [ "" ],
					"bgcolor" : [ 0.611765, 0.701961, 1.0, 1.0 ],
					"id" : "obj-96",
					"fontname" : "Arial",
					"fontsize" : 9.0,
					"numinlets" : 2,
					"numoutlets" : 1
				}

			}
, 			{
				"box" : 				{
					"maxclass" : "message",
					"text" : "rate-scale $1",
					"patching_rect" : [ 665.0, 467.0, 70.0, 15.0 ],
					"outlettype" : [ "" ],
					"bgcolor" : [ 0.611765, 0.701961, 1.0, 1.0 ],
					"id" : "obj-33",
					"fontname" : "Arial",
					"fontsize" : 9.0,
					"numinlets" : 2,
					"numoutlets" : 1
				}

			}
, 			{
				"box" : 				{
					"maxclass" : "multislider",
					"candicane6" : [ 0.733333, 0.035294, 0.788235, 1.0 ],
					"patching_rect" : [ 668.0, 363.0, 16.0, 79.0 ],
					"slidercolor" : [ 0.4, 0.4, 0.8, 1.0 ],
					"outlettype" : [ "", "" ],
					"bgcolor" : [ 0.811765, 0.827451, 0.941176, 1.0 ],
					"id" : "obj-97",
					"candicane2" : [ 0.145098, 0.203922, 0.356863, 1.0 ],
					"candicane7" : [ 0.878431, 0.243137, 0.145098, 1.0 ],
					"candicane3" : [ 0.290196, 0.411765, 0.713726, 1.0 ],
					"candicane8" : [ 0.027451, 0.447059, 0.501961, 1.0 ],
					"candicane4" : [ 0.439216, 0.619608, 0.070588, 1.0 ],
					"contdata" : 1,
					"numinlets" : 1,
					"bordercolor" : [ 0.4, 0.4, 0.8, 1.0 ],
					"candicane5" : [ 0.584314, 0.827451, 0.431373, 1.0 ],
					"setstyle" : 1,
					"numoutlets" : 2,
					"setminmax" : [ 0.0, 1.0 ],
					"peakcolor" : [ 0.498039, 0.498039, 0.498039, 1.0 ]
				}

			}
, 			{
				"box" : 				{
					"maxclass" : "comment",
					"text" : "dB's",
					"patching_rect" : [ 882.0, 467.0, 27.0, 17.0 ],
					"id" : "obj-100",
					"fontname" : "Arial",
					"fontsize" : 9.0,
					"numinlets" : 1,
					"numoutlets" : 0
				}

			}
, 			{
				"box" : 				{
					"maxclass" : "message",
					"text" : "displayrange 0 10000",
					"patching_rect" : [ 16.0, 484.0, 97.0, 15.0 ],
					"outlettype" : [ "" ],
					"id" : "obj-25",
					"fontname" : "Arial",
					"fontsize" : 9.0,
					"numinlets" : 2,
					"numoutlets" : 1
				}

			}
, 			{
				"box" : 				{
					"maxclass" : "jsui",
					"jsarguments" : [  ],
					"patching_rect" : [ 20.0, 422.0, 299.0, 61.0 ],
					"outlettype" : [ "", "" ],
					"id" : "obj-21",
					"filename" : "resonance-display.js",
					"numinlets" : 1,
					"numoutlets" : 2
				}

			}
, 			{
				"box" : 				{
					"maxclass" : "pictslider",
					"patching_rect" : [ 310.0, 20.0, 165.0, 160.0 ],
					"outlettype" : [ "int", "int" ],
					"id" : "obj-105",
					"invisiblebkgnd" : 1,
					"numinlets" : 2,
					"numoutlets" : 2
				}

			}
, 			{
				"box" : 				{
					"maxclass" : "newobj",
					"text" : "lb",
					"patching_rect" : [ 225.0, 117.0, 20.0, 20.0 ],
					"outlettype" : [ "" ],
					"id" : "obj-148",
					"fontname" : "Arial",
					"fontsize" : 12.0,
					"numinlets" : 0,
					"numoutlets" : 1
				}

			}
, 			{
				"box" : 				{
					"maxclass" : "newobj",
					"text" : "+ 24",
					"patching_rect" : [ 20.0, 81.666656, 33.0, 20.0 ],
					"outlettype" : [ "int" ],
					"id" : "obj-8",
					"fontname" : "Arial",
					"fontsize" : 11.595187,
					"numinlets" : 2,
					"numoutlets" : 1
				}

			}
, 			{
				"box" : 				{
					"maxclass" : "newobj",
					"text" : "random 12",
					"patching_rect" : [ 20.0, 58.666656, 66.0, 20.0 ],
					"outlettype" : [ "int" ],
					"id" : "obj-9",
					"fontname" : "Arial",
					"fontsize" : 11.595187,
					"numinlets" : 2,
					"numoutlets" : 1
				}

			}
, 			{
				"box" : 				{
					"maxclass" : "number",
					"patching_rect" : [ 65.0, 12.0, 50.0, 20.0 ],
					"outlettype" : [ "int", "bang" ],
					"id" : "obj-10",
					"fontname" : "Arial",
					"fontsize" : 11.595187,
					"numinlets" : 1,
					"numoutlets" : 2
				}

			}
, 			{
				"box" : 				{
					"maxclass" : "toggle",
					"patching_rect" : [ 20.0, 14.0, 20.0, 20.0 ],
					"outlettype" : [ "int" ],
					"id" : "obj-11",
					"numinlets" : 1,
					"numoutlets" : 1
				}

			}
, 			{
				"box" : 				{
					"maxclass" : "newobj",
					"text" : "metro 175",
					"patching_rect" : [ 20.0, 35.666664, 64.0, 20.0 ],
					"outlettype" : [ "bang" ],
					"id" : "obj-143",
					"fontname" : "Arial",
					"fontsize" : 11.595187,
					"numinlets" : 2,
					"numoutlets" : 1
				}

			}
, 			{
				"box" : 				{
					"maxclass" : "number",
					"patching_rect" : [ 60.0, 173.0, 50.0, 20.0 ],
					"outlettype" : [ "int", "bang" ],
					"id" : "obj-146",
					"fontname" : "Arial",
					"fontsize" : 11.595187,
					"numinlets" : 1,
					"numoutlets" : 2
				}

			}
, 			{
				"box" : 				{
					"maxclass" : "newobj",
					"text" : "makenote",
					"patching_rect" : [ 20.0, 199.0, 59.0, 20.0 ],
					"outlettype" : [ "int", "int" ],
					"id" : "obj-147",
					"fontname" : "Arial",
					"fontsize" : 11.595187,
					"numinlets" : 3,
					"numoutlets" : 2
				}

			}
, 			{
				"box" : 				{
					"maxclass" : "kslider",
					"patching_rect" : [ 20.0, 109.0, 196.0, 34.0 ],
					"outlettype" : [ "int", "int" ],
					"id" : "obj-34",
					"numinlets" : 2,
					"presentation_rect" : [ 45.0, 45.0, 196.0, 34.0 ],
					"numoutlets" : 2
				}

			}
, 			{
				"box" : 				{
					"maxclass" : "comment",
					"text" : "R",
					"patching_rect" : [ 578.0, 83.0, 18.0, 20.0 ],
					"id" : "obj-5",
					"fontname" : "Arial",
					"fontsize" : 11.595187,
					"numinlets" : 1,
					"numoutlets" : 0
				}

			}
, 			{
				"box" : 				{
					"maxclass" : "comment",
					"text" : "S",
					"patching_rect" : [ 560.0, 83.0, 18.0, 20.0 ],
					"id" : "obj-137",
					"fontname" : "Arial",
					"fontsize" : 11.595187,
					"numinlets" : 1,
					"numoutlets" : 0
				}

			}
, 			{
				"box" : 				{
					"maxclass" : "comment",
					"text" : "D",
					"patching_rect" : [ 543.0, 83.0, 18.0, 20.0 ],
					"id" : "obj-7",
					"fontname" : "Arial",
					"fontsize" : 11.595187,
					"numinlets" : 1,
					"numoutlets" : 0
				}

			}
, 			{
				"box" : 				{
					"maxclass" : "comment",
					"text" : "A",
					"patching_rect" : [ 525.0, 83.0, 18.0, 20.0 ],
					"id" : "obj-36",
					"fontname" : "Arial",
					"fontsize" : 11.595187,
					"numinlets" : 1,
					"numoutlets" : 0
				}

			}
, 			{
				"box" : 				{
					"maxclass" : "flonum",
					"patching_rect" : [ 1080.0, 155.0, 50.0, 20.0 ],
					"outlettype" : [ "float", "bang" ],
					"id" : "obj-128",
					"fontname" : "Arial",
					"fontsize" : 12.0,
					"numinlets" : 1,
					"numoutlets" : 2
				}

			}
, 			{
				"box" : 				{
					"maxclass" : "flonum",
					"patching_rect" : [ 890.0, 150.0, 50.0, 20.0 ],
					"outlettype" : [ "float", "bang" ],
					"id" : "obj-127",
					"fontname" : "Arial",
					"fontsize" : 12.0,
					"numinlets" : 1,
					"numoutlets" : 2
				}

			}
, 			{
				"box" : 				{
					"maxclass" : "flonum",
					"patching_rect" : [ 980.0, 155.0, 50.0, 20.0 ],
					"outlettype" : [ "float", "bang" ],
					"id" : "obj-126",
					"fontname" : "Arial",
					"fontsize" : 12.0,
					"numinlets" : 1,
					"numoutlets" : 2
				}

			}
, 			{
				"box" : 				{
					"maxclass" : "newobj",
					"text" : "zmap 0 1 0 127",
					"patching_rect" : [ 1075.0, 125.0, 93.0, 20.0 ],
					"outlettype" : [ "float" ],
					"id" : "obj-118",
					"fontname" : "Arial",
					"fontsize" : 12.0,
					"numinlets" : 5,
					"numoutlets" : 1
				}

			}
, 			{
				"box" : 				{
					"maxclass" : "newobj",
					"text" : "zmap 0 1 0 127",
					"patching_rect" : [ 980.0, 125.0, 93.0, 20.0 ],
					"outlettype" : [ "float" ],
					"id" : "obj-117",
					"fontname" : "Arial",
					"fontsize" : 12.0,
					"numinlets" : 5,
					"numoutlets" : 1
				}

			}
, 			{
				"box" : 				{
					"maxclass" : "newobj",
					"text" : "zmap 0 1 0 127",
					"patching_rect" : [ 885.0, 125.0, 93.0, 20.0 ],
					"outlettype" : [ "float" ],
					"id" : "obj-116",
					"fontname" : "Arial",
					"fontsize" : 12.0,
					"numinlets" : 5,
					"numoutlets" : 1
				}

			}
, 			{
				"box" : 				{
					"maxclass" : "newobj",
					"text" : "unpack f f f",
					"patching_rect" : [ 885.0, 100.0, 69.0, 20.0 ],
					"outlettype" : [ "float", "float", "float" ],
					"id" : "obj-115",
					"fontname" : "Arial",
					"fontsize" : 12.0,
					"numinlets" : 1,
					"numoutlets" : 3
				}

			}
, 			{
				"box" : 				{
					"maxclass" : "swatch",
					"patching_rect" : [ 885.0, 65.0, 95.0, 25.0 ],
					"outlettype" : [ "", "float" ],
					"id" : "obj-93",
					"numinlets" : 3,
					"numoutlets" : 2
				}

			}
, 			{
				"box" : 				{
					"maxclass" : "multislider",
					"patching_rect" : [ 322.0, 347.0, 157.0, 136.0 ],
					"outlettype" : [ "", "" ],
					"id" : "obj-83",
					"candycane" : 2,
					"numinlets" : 1,
					"size" : 20,
					"setstyle" : 1,
					"numoutlets" : 2,
					"setminmax" : [ 0.0, 1.0 ]
				}

			}
, 			{
				"box" : 				{
					"maxclass" : "gain~",
					"patching_rect" : [ 490.0, 375.0, 43.0, 93.0 ],
					"outlettype" : [ "signal", "int" ],
					"id" : "obj-12",
					"numinlets" : 2,
					"numoutlets" : 2
				}

			}
, 			{
				"box" : 				{
					"maxclass" : "ezdac~",
					"patching_rect" : [ 495.0, 475.0, 45.0, 45.0 ],
					"id" : "obj-6",
					"numinlets" : 2,
					"numoutlets" : 0
				}

			}
, 			{
				"box" : 				{
					"maxclass" : "fpic",
					"autofit" : 1,
					"patching_rect" : [ 311.0, 23.0, 165.0, 160.0 ],
					"pic" : "Macintosh HD:/Applications/Max5/media/pics/CIExy1931_CIERGB.pict",
					"id" : "obj-188",
					"numinlets" : 1,
					"numoutlets" : 0
				}

			}
 ],
		"lines" : [ 			{
				"patchline" : 				{
					"source" : [ "obj-34", 0 ],
					"destination" : [ "obj-147", 0 ],
					"hidden" : 0,
					"midpoints" : [  ]
				}

			}
, 			{
				"patchline" : 				{
					"source" : [ "obj-68", 0 ],
					"destination" : [ "obj-67", 0 ],
					"hidden" : 0,
					"midpoints" : [  ]
				}

			}
, 			{
				"patchline" : 				{
					"source" : [ "obj-68", 0 ],
					"destination" : [ "obj-12", 0 ],
					"hidden" : 0,
					"midpoints" : [  ]
				}

			}
, 			{
				"patchline" : 				{
					"source" : [ "obj-41", 0 ],
					"destination" : [ "obj-68", 0 ],
					"hidden" : 0,
					"midpoints" : [  ]
				}

			}
, 			{
				"patchline" : 				{
					"source" : [ "obj-62", 0 ],
					"destination" : [ "obj-51", 0 ],
					"hidden" : 0,
					"midpoints" : [  ]
				}

			}
, 			{
				"patchline" : 				{
					"source" : [ "obj-65", 0 ],
					"destination" : [ "obj-41", 0 ],
					"hidden" : 0,
					"midpoints" : [  ]
				}

			}
, 			{
				"patchline" : 				{
					"source" : [ "obj-2", 0 ],
					"destination" : [ "obj-65", 0 ],
					"hidden" : 0,
					"midpoints" : [  ]
				}

			}
, 			{
				"patchline" : 				{
					"source" : [ "obj-53", 0 ],
					"destination" : [ "obj-8", 1 ],
					"hidden" : 0,
					"midpoints" : [  ]
				}

			}
, 			{
				"patchline" : 				{
					"source" : [ "obj-52", 0 ],
					"destination" : [ "obj-8", 1 ],
					"hidden" : 0,
					"midpoints" : [  ]
				}

			}
, 			{
				"patchline" : 				{
					"source" : [ "obj-50", 0 ],
					"destination" : [ "obj-8", 1 ],
					"hidden" : 0,
					"midpoints" : [  ]
				}

			}
, 			{
				"patchline" : 				{
					"source" : [ "obj-8", 0 ],
					"destination" : [ "obj-34", 0 ],
					"hidden" : 0,
					"midpoints" : [  ]
				}

			}
, 			{
				"patchline" : 				{
					"source" : [ "obj-9", 0 ],
					"destination" : [ "obj-8", 0 ],
					"hidden" : 0,
					"midpoints" : [  ]
				}

			}
, 			{
				"patchline" : 				{
					"source" : [ "obj-105", 1 ],
					"destination" : [ "obj-46", 1 ],
					"hidden" : 0,
					"midpoints" : [  ]
				}

			}
, 			{
				"patchline" : 				{
					"source" : [ "obj-46", 0 ],
					"destination" : [ "obj-44", 0 ],
					"hidden" : 0,
					"midpoints" : [  ]
				}

			}
, 			{
				"patchline" : 				{
					"source" : [ "obj-105", 0 ],
					"destination" : [ "obj-46", 0 ],
					"hidden" : 0,
					"midpoints" : [  ]
				}

			}
, 			{
				"patchline" : 				{
					"source" : [ "obj-2", 2 ],
					"destination" : [ "obj-83", 0 ],
					"hidden" : 0,
					"midpoints" : [ 85.5, 333.0, 331.5, 333.0 ]
				}

			}
, 			{
				"patchline" : 				{
					"source" : [ "obj-16", 0 ],
					"destination" : [ "obj-146", 0 ],
					"hidden" : 0,
					"midpoints" : [ 234.5, 165.0, 69.5, 165.0 ]
				}

			}
, 			{
				"patchline" : 				{
					"source" : [ "obj-48", 0 ],
					"destination" : [ "obj-51", 0 ],
					"hidden" : 0,
					"midpoints" : [ 268.5, 173.0, 255.5, 173.0 ]
				}

			}
, 			{
				"patchline" : 				{
					"source" : [ "obj-148", 0 ],
					"destination" : [ "obj-48", 0 ],
					"hidden" : 0,
					"midpoints" : [ 234.5, 140.0, 268.5, 140.0 ]
				}

			}
, 			{
				"patchline" : 				{
					"source" : [ "obj-35", 3 ],
					"destination" : [ "obj-57", 0 ],
					"hidden" : 0,
					"midpoints" : [  ]
				}

			}
, 			{
				"patchline" : 				{
					"source" : [ "obj-35", 2 ],
					"destination" : [ "obj-56", 0 ],
					"hidden" : 0,
					"midpoints" : [  ]
				}

			}
, 			{
				"patchline" : 				{
					"source" : [ "obj-35", 1 ],
					"destination" : [ "obj-55", 0 ],
					"hidden" : 0,
					"midpoints" : [  ]
				}

			}
, 			{
				"patchline" : 				{
					"source" : [ "obj-35", 0 ],
					"destination" : [ "obj-54", 0 ],
					"hidden" : 0,
					"midpoints" : [  ]
				}

			}
, 			{
				"patchline" : 				{
					"source" : [ "obj-31", 0 ],
					"destination" : [ "obj-35", 0 ],
					"hidden" : 0,
					"midpoints" : [  ]
				}

			}
, 			{
				"patchline" : 				{
					"source" : [ "obj-45", 0 ],
					"destination" : [ "obj-28", 0 ],
					"hidden" : 0,
					"midpoints" : [  ]
				}

			}
, 			{
				"patchline" : 				{
					"source" : [ "obj-32", 0 ],
					"destination" : [ "obj-27", 0 ],
					"hidden" : 0,
					"midpoints" : [  ]
				}

			}
, 			{
				"patchline" : 				{
					"source" : [ "obj-2", 1 ],
					"destination" : [ "obj-21", 0 ],
					"hidden" : 0,
					"midpoints" : [ 57.5, 321.0, 29.5, 321.0 ]
				}

			}
, 			{
				"patchline" : 				{
					"source" : [ "obj-2", 0 ],
					"destination" : [ "obj-165", 0 ],
					"hidden" : 0,
					"midpoints" : [  ]
				}

			}
, 			{
				"patchline" : 				{
					"source" : [ "obj-148", 0 ],
					"destination" : [ "obj-16", 0 ],
					"hidden" : 0,
					"midpoints" : [  ]
				}

			}
, 			{
				"patchline" : 				{
					"source" : [ "obj-134", 0 ],
					"destination" : [ "obj-157", 0 ],
					"hidden" : 0,
					"midpoints" : [  ]
				}

			}
, 			{
				"patchline" : 				{
					"source" : [ "obj-125", 0 ],
					"destination" : [ "obj-157", 0 ],
					"hidden" : 0,
					"midpoints" : [  ]
				}

			}
, 			{
				"patchline" : 				{
					"source" : [ "obj-143", 0 ],
					"destination" : [ "obj-9", 0 ],
					"hidden" : 0,
					"midpoints" : [  ]
				}

			}
, 			{
				"patchline" : 				{
					"source" : [ "obj-152", 0 ],
					"destination" : [ "obj-153", 0 ],
					"hidden" : 0,
					"midpoints" : [  ]
				}

			}
, 			{
				"patchline" : 				{
					"source" : [ "obj-155", 0 ],
					"destination" : [ "obj-156", 0 ],
					"hidden" : 0,
					"midpoints" : [  ]
				}

			}
, 			{
				"patchline" : 				{
					"source" : [ "obj-156", 0 ],
					"destination" : [ "obj-152", 0 ],
					"hidden" : 0,
					"midpoints" : [  ]
				}

			}
, 			{
				"patchline" : 				{
					"source" : [ "obj-155", 0 ],
					"destination" : [ "obj-141", 0 ],
					"hidden" : 0,
					"midpoints" : [  ]
				}

			}
, 			{
				"patchline" : 				{
					"source" : [ "obj-141", 0 ],
					"destination" : [ "obj-156", 1 ],
					"hidden" : 0,
					"midpoints" : [  ]
				}

			}
, 			{
				"patchline" : 				{
					"source" : [ "obj-130", 0 ],
					"destination" : [ "obj-14", 0 ],
					"hidden" : 0,
					"midpoints" : [  ]
				}

			}
, 			{
				"patchline" : 				{
					"source" : [ "obj-14", 0 ],
					"destination" : [ "obj-134", 0 ],
					"hidden" : 0,
					"midpoints" : [  ]
				}

			}
, 			{
				"patchline" : 				{
					"source" : [ "obj-129", 0 ],
					"destination" : [ "obj-123", 0 ],
					"hidden" : 0,
					"midpoints" : [  ]
				}

			}
, 			{
				"patchline" : 				{
					"source" : [ "obj-123", 0 ],
					"destination" : [ "obj-125", 0 ],
					"hidden" : 0,
					"midpoints" : [  ]
				}

			}
, 			{
				"patchline" : 				{
					"source" : [ "obj-3", 0 ],
					"destination" : [ "obj-4", 0 ],
					"hidden" : 0,
					"midpoints" : [  ]
				}

			}
, 			{
				"patchline" : 				{
					"source" : [ "obj-4", 0 ],
					"destination" : [ "obj-13", 0 ],
					"hidden" : 0,
					"midpoints" : [  ]
				}

			}
, 			{
				"patchline" : 				{
					"source" : [ "obj-13", 0 ],
					"destination" : [ "obj-110", 0 ],
					"hidden" : 0,
					"midpoints" : [ 674.5, 328.0, 674.5, 328.0 ]
				}

			}
, 			{
				"patchline" : 				{
					"source" : [ "obj-113", 0 ],
					"destination" : [ "obj-110", 0 ],
					"hidden" : 0,
					"midpoints" : [ 762.5, 328.0, 674.5, 328.0 ]
				}

			}
, 			{
				"patchline" : 				{
					"source" : [ "obj-111", 0 ],
					"destination" : [ "obj-110", 0 ],
					"hidden" : 0,
					"midpoints" : [ 861.5, 328.0, 674.5, 328.0 ]
				}

			}
, 			{
				"patchline" : 				{
					"source" : [ "obj-109", 0 ],
					"destination" : [ "obj-110", 0 ],
					"hidden" : 0,
					"midpoints" : [ 966.5, 328.0, 674.5, 328.0 ]
				}

			}
, 			{
				"patchline" : 				{
					"source" : [ "obj-112", 0 ],
					"destination" : [ "obj-106", 0 ],
					"hidden" : 0,
					"midpoints" : [  ]
				}

			}
, 			{
				"patchline" : 				{
					"source" : [ "obj-106", 0 ],
					"destination" : [ "obj-113", 0 ],
					"hidden" : 0,
					"midpoints" : [  ]
				}

			}
, 			{
				"patchline" : 				{
					"source" : [ "obj-1", 0 ],
					"destination" : [ "obj-107", 0 ],
					"hidden" : 0,
					"midpoints" : [  ]
				}

			}
, 			{
				"patchline" : 				{
					"source" : [ "obj-107", 0 ],
					"destination" : [ "obj-111", 0 ],
					"hidden" : 0,
					"midpoints" : [  ]
				}

			}
, 			{
				"patchline" : 				{
					"source" : [ "obj-103", 0 ],
					"destination" : [ "obj-108", 0 ],
					"hidden" : 0,
					"midpoints" : [  ]
				}

			}
, 			{
				"patchline" : 				{
					"source" : [ "obj-108", 0 ],
					"destination" : [ "obj-109", 0 ],
					"hidden" : 0,
					"midpoints" : [  ]
				}

			}
, 			{
				"patchline" : 				{
					"source" : [ "obj-97", 0 ],
					"destination" : [ "obj-22", 0 ],
					"hidden" : 0,
					"midpoints" : [  ]
				}

			}
, 			{
				"patchline" : 				{
					"source" : [ "obj-22", 0 ],
					"destination" : [ "obj-33", 0 ],
					"hidden" : 0,
					"midpoints" : [  ]
				}

			}
, 			{
				"patchline" : 				{
					"source" : [ "obj-33", 0 ],
					"destination" : [ "obj-94", 0 ],
					"hidden" : 0,
					"midpoints" : [  ]
				}

			}
, 			{
				"patchline" : 				{
					"source" : [ "obj-96", 0 ],
					"destination" : [ "obj-94", 0 ],
					"hidden" : 1,
					"midpoints" : [ 752.5, 491.0, 674.5, 491.0 ]
				}

			}
, 			{
				"patchline" : 				{
					"source" : [ "obj-29", 0 ],
					"destination" : [ "obj-94", 0 ],
					"hidden" : 1,
					"midpoints" : [ 823.5, 491.0, 674.5, 491.0 ]
				}

			}
, 			{
				"patchline" : 				{
					"source" : [ "obj-95", 0 ],
					"destination" : [ "obj-23", 0 ],
					"hidden" : 0,
					"midpoints" : [  ]
				}

			}
, 			{
				"patchline" : 				{
					"source" : [ "obj-23", 0 ],
					"destination" : [ "obj-96", 0 ],
					"hidden" : 0,
					"midpoints" : [  ]
				}

			}
, 			{
				"patchline" : 				{
					"source" : [ "obj-30", 0 ],
					"destination" : [ "obj-92", 0 ],
					"hidden" : 0,
					"midpoints" : [  ]
				}

			}
, 			{
				"patchline" : 				{
					"source" : [ "obj-92", 0 ],
					"destination" : [ "obj-29", 0 ],
					"hidden" : 0,
					"midpoints" : [  ]
				}

			}
, 			{
				"patchline" : 				{
					"source" : [ "obj-25", 0 ],
					"destination" : [ "obj-21", 0 ],
					"hidden" : 0,
					"midpoints" : [  ]
				}

			}
, 			{
				"patchline" : 				{
					"source" : [ "obj-12", 0 ],
					"destination" : [ "obj-6", 0 ],
					"hidden" : 0,
					"midpoints" : [  ]
				}

			}
, 			{
				"patchline" : 				{
					"source" : [ "obj-12", 0 ],
					"destination" : [ "obj-6", 1 ],
					"hidden" : 0,
					"midpoints" : [  ]
				}

			}
, 			{
				"patchline" : 				{
					"source" : [ "obj-93", 0 ],
					"destination" : [ "obj-115", 0 ],
					"hidden" : 0,
					"midpoints" : [  ]
				}

			}
, 			{
				"patchline" : 				{
					"source" : [ "obj-115", 0 ],
					"destination" : [ "obj-116", 0 ],
					"hidden" : 0,
					"midpoints" : [  ]
				}

			}
, 			{
				"patchline" : 				{
					"source" : [ "obj-115", 1 ],
					"destination" : [ "obj-117", 0 ],
					"hidden" : 0,
					"midpoints" : [  ]
				}

			}
, 			{
				"patchline" : 				{
					"source" : [ "obj-115", 2 ],
					"destination" : [ "obj-118", 0 ],
					"hidden" : 0,
					"midpoints" : [  ]
				}

			}
, 			{
				"patchline" : 				{
					"source" : [ "obj-117", 0 ],
					"destination" : [ "obj-126", 0 ],
					"hidden" : 0,
					"midpoints" : [  ]
				}

			}
, 			{
				"patchline" : 				{
					"source" : [ "obj-118", 0 ],
					"destination" : [ "obj-127", 0 ],
					"hidden" : 0,
					"midpoints" : [  ]
				}

			}
, 			{
				"patchline" : 				{
					"source" : [ "obj-116", 0 ],
					"destination" : [ "obj-128", 0 ],
					"hidden" : 0,
					"midpoints" : [  ]
				}

			}
, 			{
				"patchline" : 				{
					"source" : [ "obj-146", 0 ],
					"destination" : [ "obj-147", 2 ],
					"hidden" : 0,
					"midpoints" : [  ]
				}

			}
, 			{
				"patchline" : 				{
					"source" : [ "obj-10", 0 ],
					"destination" : [ "obj-143", 1 ],
					"hidden" : 0,
					"midpoints" : [  ]
				}

			}
, 			{
				"patchline" : 				{
					"source" : [ "obj-11", 0 ],
					"destination" : [ "obj-143", 0 ],
					"hidden" : 0,
					"midpoints" : [  ]
				}

			}
, 			{
				"patchline" : 				{
					"source" : [ "obj-34", 1 ],
					"destination" : [ "obj-147", 1 ],
					"hidden" : 0,
					"midpoints" : [ 206.5, 154.0, 49.5, 154.0 ]
				}

			}
, 			{
				"patchline" : 				{
					"source" : [ "obj-105", 0 ],
					"destination" : [ "obj-37", 0 ],
					"hidden" : 0,
					"midpoints" : [  ]
				}

			}
, 			{
				"patchline" : 				{
					"source" : [ "obj-105", 1 ],
					"destination" : [ "obj-38", 0 ],
					"hidden" : 0,
					"midpoints" : [  ]
				}

			}
, 			{
				"patchline" : 				{
					"source" : [ "obj-51", 0 ],
					"destination" : [ "obj-49", 0 ],
					"hidden" : 0,
					"midpoints" : [  ]
				}

			}
, 			{
				"patchline" : 				{
					"source" : [ "obj-54", 0 ],
					"destination" : [ "obj-58", 0 ],
					"hidden" : 0,
					"midpoints" : [  ]
				}

			}
, 			{
				"patchline" : 				{
					"source" : [ "obj-55", 1 ],
					"destination" : [ "obj-58", 1 ],
					"hidden" : 0,
					"midpoints" : [  ]
				}

			}
, 			{
				"patchline" : 				{
					"source" : [ "obj-56", 0 ],
					"destination" : [ "obj-58", 2 ],
					"hidden" : 0,
					"midpoints" : [  ]
				}

			}
, 			{
				"patchline" : 				{
					"source" : [ "obj-57", 0 ],
					"destination" : [ "obj-58", 3 ],
					"hidden" : 0,
					"midpoints" : [  ]
				}

			}
, 			{
				"patchline" : 				{
					"source" : [ "obj-58", 0 ],
					"destination" : [ "obj-59", 0 ],
					"hidden" : 0,
					"midpoints" : [  ]
				}

			}
, 			{
				"patchline" : 				{
					"source" : [ "obj-26", 0 ],
					"destination" : [ "obj-147", 0 ],
					"hidden" : 0,
					"midpoints" : [  ]
				}

			}
, 			{
				"patchline" : 				{
					"source" : [ "obj-20", 0 ],
					"destination" : [ "obj-31", 0 ],
					"hidden" : 0,
					"midpoints" : [  ]
				}

			}
, 			{
				"patchline" : 				{
					"source" : [ "obj-42", 0 ],
					"destination" : [ "obj-2", 2 ],
					"hidden" : 0,
					"midpoints" : [ 85.5, 271.0 ]
				}

			}
, 			{
				"patchline" : 				{
					"source" : [ "obj-17", 0 ],
					"destination" : [ "obj-2", 1 ],
					"hidden" : 0,
					"midpoints" : [  ]
				}

			}
, 			{
				"patchline" : 				{
					"source" : [ "obj-37", 0 ],
					"destination" : [ "obj-24", 0 ],
					"hidden" : 0,
					"midpoints" : [  ]
				}

			}
, 			{
				"patchline" : 				{
					"source" : [ "obj-38", 0 ],
					"destination" : [ "obj-24", 0 ],
					"hidden" : 0,
					"midpoints" : [ 481.5, 210.0, 335.5, 210.0 ]
				}

			}
, 			{
				"patchline" : 				{
					"source" : [ "obj-59", 0 ],
					"destination" : [ "obj-24", 0 ],
					"hidden" : 0,
					"midpoints" : [ 533.5, 232.0, 533.5, 236.0, 365.0, 236.0, 365.0, 227.0, 335.5, 227.0 ]
				}

			}
, 			{
				"patchline" : 				{
					"source" : [ "obj-49", 0 ],
					"destination" : [ "obj-39", 0 ],
					"hidden" : 0,
					"midpoints" : [  ]
				}

			}
, 			{
				"patchline" : 				{
					"source" : [ "obj-27", 0 ],
					"destination" : [ "obj-40", 0 ],
					"hidden" : 0,
					"midpoints" : [  ]
				}

			}
, 			{
				"patchline" : 				{
					"source" : [ "obj-28", 0 ],
					"destination" : [ "obj-40", 0 ],
					"hidden" : 0,
					"midpoints" : [ 245.5, 67.0, 193.5, 67.0 ]
				}

			}
, 			{
				"patchline" : 				{
					"source" : [ "obj-18", 0 ],
					"destination" : [ "obj-2", 0 ],
					"hidden" : 0,
					"midpoints" : [  ]
				}

			}
, 			{
				"patchline" : 				{
					"source" : [ "obj-147", 1 ],
					"destination" : [ "obj-18", 1 ],
					"hidden" : 0,
					"midpoints" : [ 69.5, 224.0, 59.5, 224.0 ]
				}

			}
, 			{
				"patchline" : 				{
					"source" : [ "obj-147", 0 ],
					"destination" : [ "obj-18", 0 ],
					"hidden" : 0,
					"midpoints" : [  ]
				}

			}
, 			{
				"patchline" : 				{
					"source" : [ "obj-15", 0 ],
					"destination" : [ "obj-18", 0 ],
					"hidden" : 0,
					"midpoints" : [ 137.5, 224.0, 29.5, 224.0 ]
				}

			}
, 			{
				"patchline" : 				{
					"source" : [ "obj-15", 1 ],
					"destination" : [ "obj-18", 1 ],
					"hidden" : 0,
					"midpoints" : [ 151.0, 224.0, 59.5, 224.0 ]
				}

			}
, 			{
				"patchline" : 				{
					"source" : [ "obj-60", 0 ],
					"destination" : [ "obj-147", 0 ],
					"hidden" : 0,
					"midpoints" : [  ]
				}

			}
, 			{
				"patchline" : 				{
					"source" : [ "obj-47", 0 ],
					"destination" : [ "obj-60", 2 ],
					"hidden" : 0,
					"midpoints" : [  ]
				}

			}
, 			{
				"patchline" : 				{
					"source" : [ "obj-64", 0 ],
					"destination" : [ "obj-60", 1 ],
					"hidden" : 0,
					"midpoints" : [  ]
				}

			}
 ]
	}

}
